<?xml version="1.0" encoding="utf-8"?>
<!-- Generator: Adobe Illustrator 27.8.0, SVG Export Plug-In . SVG Version: 6.00 Build 0)  -->
<svg version="1.0" id="Layer_1" xmlns="http://www.w3.org/2000/svg" xmlns:xlink="http://www.w3.org/1999/xlink" x="0px" y="0px"
	 viewBox="0 0 39 39.4" style="enable-background:new 0 0 39 39.4;" xml:space="preserve">
<style type="text/css">
	.st0{fill:#FFFFFF;}
	.st1{fill:#242223;}
	.st2{fill:#1A1819;}
</style>
<g>
	<path class="st0" d="M20.7,2.8c-0.4-0.6-0.8-1-1.3-1.4C19.2,1.2,19,1,18.7,0.9c-0.3-0.1-0.7-0.3-1.2-0.4c-0.8-0.1-1.4,0-1.7,0.1
		c-0.4,0.1-0.6,0.2-0.8,0.3c-0.2,0.1-0.4,0.2-0.7,0.4c-0.3,0.2-0.7,0.5-1.1,1.1c-0.5,0.7-0.7,1.4-0.7,1.9c-0.1,0.6,0,1.2,0,1.6
		c0.1,0.6,0.2,1.1,0.3,1.6c0.2,0.6,0.4,1.1,0.6,1.7c0.6,1.2,2,3.7,5.5,6.5c0.1,0.1,0.3,0.3,0.4,0.4c0.1,0.1,0.3,0.2,0.3,0.3
		c0.9,0.6,1.4,0.8,1.7,0.9l0-0.2l0.3,0.1c0.8-1.3,1.4-2.9,1.5-4.6c0.1-1.4,0-2.8-0.2-4.1c-0.1-0.6-0.2-1.1-0.4-1.5v0
		c-0.2-0.6-0.3-1-0.5-1.4C21.9,4.7,21.5,4,20.7,2.8z"/>
	<path class="st1" d="M21.7,17.3c-0.1,0.3-0.7,0.4-2.5-0.7c-0.1-0.1-0.5-0.5-0.8-0.7c-3.4-2.7-5-5.1-5.6-6.6c-0.6-1.2-0.9-2.3-1-3.3
		c-0.1-0.5-0.1-1.1,0-1.7c0.1-0.6,0.3-1.3,0.8-2.1c0.5-0.7,1-1,1.3-1.3c0.3-0.2,0.6-0.3,0.8-0.5c0.2-0.1,0.5-0.2,0.9-0.3
		c0.4-0.1,1.1-0.3,2-0.1c1.2,0.2,1.7,0.6,2.2,1c0.5,0.4,0.9,0.8,1.4,1.5c0.8,1.2,1.2,2,1.5,2.8c0.3,0.8,0.6,1.6,0.9,3
		c0.2,1.4,0.3,2.8,0.2,4.2c-0.1,1.8-0.7,3.5-1.7,4.8c-0.4,0.5-0.9,0-0.9-0.3c0-0.6,0.4-1.6,0.7-2.3c0.6-1.7,0.8-3.5,0.6-5.2
		c-0.2-1.8-0.6-2.7-1-3.6c-0.4-0.9-0.8-1.8-2-3.3c-0.6-0.7-1.4-1.3-2.4-1.5c-1-0.2-2.2,0.3-2.9,1c-0.6,0.6-0.8,1-0.9,1.4
		c-0.1,0.4-0.2,0.6-0.2,0.9c0,0.5-0.1,1,0.2,2.4c0.2,1,0.4,1.4,0.5,1.8c0.2,0.4,0.3,0.8,0.8,1.7c0.6,0.9,0.7,1,1.5,1.9
		c0.1,0.1,0.9,1.1,1.1,1.2c0.2,0.2,1.3,1.3,1.6,1.5c0.1,0.1,1,0.7,1.8,1.3C21.4,16.5,22.1,17.1,21.7,17.3z"/>
	<path class="st2" d="M17.5,11.4l0,0.2l0.1,0.2c0.1,0.1,0.2,0.2,0.2,0.3l0.3,0.6l0,0.1l0.1,0.1l0.1,0.1l0.1,0.3l0,0l0,0
		c0.1,0.1,0.1,0.3,0.2,0.4l0.2,0.3l0.2,0.2l0.1,0.1l0,0l0.1,0.2c0.3,0.4,0.5,0.8,0.7,1.2c0.1,0.1,0.1,0.3,0.2,0.4
		c0.3,0.3,0.3,0.6,0.6,0.9c0.1,0.1,0.5,0.3,0.7,0.3c0.1,0,0.2-0.1,0.4-0.2c0.3-0.1,0.6-0.5,0.5-0.7c-0.1-0.2-0.3-0.3-0.4-0.5
		c-0.1-0.2-0.2-0.4-0.4-0.5c-0.1-0.1-0.3-0.2-0.4-0.4c-0.1-0.2-0.2-0.3-0.3-0.5c-0.1-0.2-0.3-0.4-0.4-0.7l0.1,0l0,0l0,0l0,0
		c-0.2-0.3-0.4-0.6-0.6-0.9c-0.2-0.4-0.4-0.8-0.6-1.1c-0.1-0.3,0-0.6-0.1-0.8c0-0.1-0.1-0.1-0.2-0.2c-0.1,0-0.1-0.1-0.2-0.1
		c-0.1,0-0.2,0-0.4,0.1C17.9,10.9,17.4,11.2,17.5,11.4z"/>
	<path class="st2" d="M18.6,9.6c0,0.1,0.1,0.4-0.2,0.5c-0.1,0.1-0.3,0.1-0.4,0.1c-0.2,0-0.4,0-0.6,0c-0.1,0-0.2,0-0.2-0.1
		c-0.1-0.1,0-0.3-0.1-0.4c-0.1-0.2,0.1-0.5,0.1-0.8c0-0.3-0.2-0.5,0.2-0.7c0.2,0,0.4,0,0.4,0.1C18.1,8.7,18.3,9.1,18.6,9.6L18.6,9.6
		z"/>
	<path class="st2" d="M17.6,6.8c0,0.1,0,0.2-0.1,0.3c-0.2,0.3-1,0.5-1.2,0.3c-0.1-0.2,0-0.3,0-0.5c0-0.1,0.1-0.6,0.5-0.5
		c0.3,0,0.6,0.3,0.7,0.4L17.6,6.8z"/>
	<path class="st2" d="M16.4,4.9L16.4,4.9c0.7-0.2,1.2,0.2,0.8,0.5c-0.2,0.2-1,0.4-1.2,0.3C15.8,5.5,16,5,16.4,4.9z"/>
	<path class="st0" d="M29.8,5.6c-0.1-0.5-0.2-0.8-0.4-1.2c-0.2-0.3-0.3-0.7-0.6-1c-0.2-0.2-0.4-0.5-0.7-0.7
		c-0.3-0.2-0.7-0.5-1.2-0.6c-0.8-0.2-1.4,0-1.7,0.1c-0.4,0.1-0.6,0.2-0.8,0.3C24.2,2.7,24,2.8,23.7,3c-0.4,0.2-0.7,0.5-1.2,0.9
		c-0.3,0.3-0.5,0.5-0.7,0.7c-0.2,0.2-0.3,0.4-0.4,0.5C21.2,5.3,21,5.6,21,5.8c-0.1,0.3-0.2,0.6-0.2,0.9c-0.1,0.3-0.1,0.7-0.1,1.1
		c-0.1,0.9-0.1,2.9-0.1,7.1c0,0.2,0,0.4,0,0.5c0,0.2,0,0.3,0,0.4c0,1,0.1,1.6,0.2,1.8l0.2-0.1l0.1,0.3c1.5,0.1,3.2-0.4,4.7-1.5
		c1.2-0.9,2.3-2.1,3.1-3.4c0.4-0.6,0.6-1.2,0.8-1.8l0,0c0.3-0.7,0.4-1.3,0.5-1.8C30.1,8.5,30.2,7.4,29.8,5.6z"/>
	<path class="st1" d="M20.6,18.2c-0.3,0.1-0.7-0.4-0.7-2.4c0-0.2,0.1-0.6,0.1-1c0.1-4,0-6.1,0.1-7.1c0-0.9,0.2-1.4,0.4-1.9
		c0.1-0.3,0.2-0.5,0.4-0.8c0.3-0.3,0.5-0.7,1.2-1.2c0.5-0.5,1-0.8,1.4-1c0.3-0.2,0.6-0.3,0.8-0.5c0.2-0.1,0.5-0.2,0.9-0.4
		c0.4-0.1,1.1-0.4,2-0.2c0.6,0.1,1.1,0.4,1.4,0.6c0.3,0.3,0.6,0.5,0.8,0.8c0.2,0.3,0.4,0.6,0.6,1c0.2,0.4,0.4,0.8,0.5,1.4
		c0.5,1.9,0.3,3.1,0.1,4.2c-0.2,1.1-0.5,2.2-1.4,3.7c-0.8,1.5-2,2.7-3.2,3.6c-1.6,1.2-3.4,1.6-5,1.5c-0.6-0.1-0.5-0.7-0.2-0.9
		c0.5-0.3,1.6-0.5,2.4-0.7c1.7-0.5,3.4-1.6,4.6-3.3c1.2-1.8,1.5-3,1.7-4.2c0.1-1.2,0.3-2.5-0.5-4.6c-0.4-1-1.2-1.9-2.2-2.1
		c-1-0.2-2.1,0.3-3,0.9c-0.6,0.4-0.9,0.7-1.1,1c-0.2,0.2-0.3,0.4-0.4,0.5c-0.1,0.2-0.2,0.3-0.3,0.5c0,0.1-0.1,0.2-0.1,0.4
		c-0.1,0.2-0.1,0.3-0.2,0.5c-0.2,0.6-0.2,0.9-0.2,1.2c0,0.3-0.1,0.6-0.1,1.4c0,0.9,0,1,0,2c0,0.1,0,1.2,0,1.4c0,0.1,0,0.5,0,1
		c0,0.4,0,0.9,0,1c0,0.2,0,1.2,0,2.1C21.2,17.5,21,18.4,20.6,18.2z"/>
	<path class="st2" d="M22.6,11.5l-0.1,0.1l0,0.2c0,0.1,0,0.2,0,0.3l-0.2,0.6l0,0.1l0,0.1l0,0.1L22,13.3l0,0l0,0
		c-0.1,0.1-0.1,0.3-0.1,0.4L21.8,14l-0.1,0.2l0,0.1l0,0l-0.1,0.2c-0.1,0.4-0.3,0.8-0.5,1.2C21.1,16,21,16,20.9,16.2
		c-0.1,0.3-0.3,0.6-0.4,0.9c-0.1,0.1,0,0.6,0.1,0.7c0.1,0.1,0.2,0.1,0.3,0.2c0.2,0.2,0.7,0.2,0.8,0c0.1-0.2,0.1-0.4,0.2-0.6
		c0.1-0.2,0.2-0.4,0.2-0.6c0-0.2,0-0.4,0.1-0.5c0.1-0.2,0.1-0.4,0.2-0.5c0.2-0.2,0.2-0.5,0.3-0.7l0,0l0,0l0,0l0,0
		c0.1-0.3,0.2-0.6,0.3-1c0.1-0.4,0.3-0.8,0.4-1.2c0.1-0.2,0.4-0.4,0.5-0.6c0-0.1,0-0.2,0-0.2c-0.1-0.1,0-0.1-0.1-0.2
		c-0.1-0.1-0.2-0.1-0.3-0.2C23.2,11.6,22.6,11.4,22.6,11.5z"/>
	<path class="st2" d="M24.5,11.1c0,0.1-0.2,0.4-0.5,0.2c-0.1-0.1-0.3-0.2-0.4-0.2c-0.2-0.1-0.3-0.3-0.5-0.4l-0.2-0.2
		c-0.1-0.2,0.1-0.2,0.2-0.3c0.1-0.2,0.4-0.3,0.6-0.5c0.2-0.2,0.1-0.4,0.6-0.4c0.1,0.1,0.3,0.3,0.3,0.4
		C24.7,10.1,24.6,10.5,24.5,11.1L24.5,11.1z"/>
	<path class="st2" d="M25.3,8.4c0,0.1-0.1,0.2-0.2,0.2c-0.3,0.1-1.2-0.1-1.1-0.4C24,8,24.1,8,24.2,7.8c0.1-0.1,0.4-0.4,0.7-0.2
		c0.2,0.1,0.4,0.5,0.4,0.6L25.3,8.4z"/>
	<path class="st2" d="M25.1,6.2L25.1,6.2c0.7,0.1,1,0.6,0.6,0.7c-0.3,0.1-1,0-1.3-0.2C24.2,6.5,24.6,6.2,25.1,6.2z"/>
	<path class="st0" d="M37.1,18.7c0.3-0.3,0.7-0.7,1.1-1.6c0.3-0.6,0.4-1.2,0.4-1.8c0-0.6-0.1-1.3-0.4-1.8c-0.6-1.1-1.6-1.5-2.4-1.8
		c-0.8-0.2-1.6-0.3-2.3-0.3c-0.7,0-1.3,0.1-2,0.1c-1.1,0.2-2.4,0.4-4.5,1.6c-0.2,0.1-0.5,0.3-0.7,0.5c-0.2,0.2-0.5,0.4-0.7,0.6
		c-0.4,0.4-0.8,0.8-1.1,1.3c-0.6,0.9-1,1.8-1.3,2.7c-0.2,0.5-0.6,1.7-0.7,2.6c0,0.1,0,0.2,0,0.3l-0.1,0l0,0l0.1,0l0,0l0,0l0,0l0,0
		l0.1,0.1l0.2,0.1l0,0.1l0,0l0,0c0.2,0.1,0.8,0.1,1.7,0c1-0.1,1.9-0.4,2.1-0.4c0.1,0,0.5-0.1,0.9-0.1c0.4,0,0.6,0,0.7,0
		c0.1,0,0.2,0,0.4,0.1c0.1,0,0.1,0,0.2,0c0.1,0,0.2,0,0.2,0c0.6,0,0.8,0,1.3-0.1l0.5,0l0.1,0c0.8-0.1,1.1-0.1,1.5-0.2l0.1,0
		c0.3-0.1,0.7-0.1,1.5-0.4c1.3-0.4,1.8-0.7,2.2-1C36.6,19.1,36.8,19,37.1,18.7z"/>
	<path class="st1" d="M22.5,21.5c-0.3-0.4,0.1-0.7,2-1.1c0.1,0,0.7,0,1-0.1c1-0.2,1.8-0.3,2.3-0.3c0.3,0,0.5,0,0.7,0.1
		c0.2,0,0.5,0,0.8,0c1,0,1.9,0,2.5-0.1c1.1-0.1,2-0.4,2.9-0.7c0.9-0.4,1.8-0.8,2.6-1.9c0.3-0.5,0.5-0.9,0.6-1.2
		c0.1-0.3,0.1-0.4,0.1-0.6c0-0.2,0-0.3,0-0.6c0-0.3,0-0.7-0.3-1.2c-0.4-0.7-0.9-0.9-1.3-1.1c-0.5-0.2-0.9-0.3-1.8-0.4
		c-1.5-0.2-2.4-0.1-3.2,0c-0.9,0.1-1.8,0.3-3.3,1c-0.4,0.2-0.7,0.4-1,0.6c-0.4,0.2-0.8,0.5-1.1,0.8c-0.6,0.6-1.1,1.3-1.4,1.9
		c-0.7,1.7-1,3.3-1.9,4.6c-0.4,0.5-0.8-0.2-0.7-0.7c0-0.9,0.4-1.9,0.7-2.7c0.3-0.8,0.7-1.7,1.3-2.6c0.6-0.9,1.5-1.8,2.7-2.5
		c2.2-1.3,3.4-1.4,4.6-1.7c1.2-0.2,2.4-0.3,4.4,0.1c1,0.3,2,0.7,2.7,2c0.3,0.6,0.5,1.4,0.4,2.1c0,0.7-0.2,1.5-0.5,2.1
		c-0.4,0.9-0.9,1.4-1.2,1.8c-0.3,0.3-0.6,0.5-0.8,0.7c-0.5,0.3-1,0.7-2.3,1.1c-0.9,0.3-1.3,0.3-1.7,0.4c-0.4,0.1-0.8,0.1-1.6,0.2
		c-0.9,0-0.9,0.1-1.7,0.1c0,0-0.1,0-0.2,0l-0.1-0.1c-0.1,0-0.3-0.1-0.4-0.1c-0.1,0-0.3,0-0.7,0c-0.3,0-0.8,0.1-0.9,0.1
		c-0.1,0-1.1,0.3-2.2,0.5C23.6,22.2,22.5,22,22.5,21.5z"/>
	<path class="st0" d="M33.4,28.9c0.7-0.1,1.2-0.2,1.8-0.5c0.2-0.1,0.5-0.2,0.8-0.4c0.3-0.2,0.6-0.4,0.9-0.9c0.5-0.7,0.6-1.2,0.7-1.6
		c0.1-0.4,0.1-0.6,0.1-0.8c0-0.2,0-0.4,0-0.8c0-0.4-0.1-0.9-0.4-1.5c-0.4-0.8-0.8-1.2-1.2-1.5c-0.5-0.4-0.9-0.6-1.3-0.7
		c-0.5-0.2-0.9-0.3-1.4-0.4c-0.5-0.1-1-0.2-1.6-0.2c-1.2-0.1-3.9,0-7.8,1.6c-0.2,0.1-0.4,0.1-0.5,0.2c-0.2,0.1-0.3,0.1-0.4,0.1
		c-0.9,0.5-1.4,0.8-1.6,1l0.1,0.1l-0.2,0.2c0.6,1.4,1.6,2.7,2.9,3.7c1.1,0.8,2.3,1.4,3.4,1.9c0.5,0.2,1,0.3,1.5,0.5h0
		c0.5,0.1,1,0.2,1.4,0.2C31.3,29,32.1,29.1,33.4,28.9z"/>
	<path class="st1" d="M21.1,22.5c-0.2-0.2,0-0.8,1.8-1.7c0.1-0.1,0.6-0.2,0.9-0.3c3.8-1.5,6.5-1.7,8-1.6c1.2,0.1,2.2,0.3,3.1,0.7
		c0.5,0.2,0.9,0.4,1.4,0.8c0.5,0.4,0.9,0.8,1.3,1.7c0.3,0.7,0.4,1.3,0.4,1.7c0,0.4,0,0.7,0,0.9c0,0.3,0,0.5-0.1,1
		c-0.1,0.4-0.3,1.1-0.8,1.9c-0.7,1-1.3,1.2-1.8,1.5c-0.5,0.2-1.1,0.4-1.9,0.5c-1.4,0.2-2.2,0.1-3,0c-0.8-0.1-1.6-0.2-2.9-0.7
		c-1.2-0.5-2.4-1.1-3.5-1.9c-1.4-1-2.4-2.4-3-3.9c-0.2-0.6,0.4-0.7,0.7-0.6c0.5,0.3,1.1,1.2,1.5,1.8c1,1.3,2.4,2.5,3.9,3.2
		c1.6,0.7,2.6,0.8,3.5,0.9c0.9,0.1,1.9,0.1,3.7-0.2c0.9-0.2,1.7-0.6,2.3-1.4c0.6-0.8,0.7-2.1,0.5-3.1c-0.2-0.8-0.5-1.1-0.7-1.4
		c-0.2-0.3-0.4-0.4-0.6-0.6c-0.4-0.3-0.8-0.5-2-0.9c-0.9-0.3-1.3-0.3-1.7-0.4c-0.4,0-0.8-0.1-1.7-0.1c-1.1,0.1-1.1,0.1-2.2,0.4
		c-0.2,0-1.3,0.3-1.5,0.3c-0.3,0-1.7,0.5-2,0.6c-0.2,0.1-1.1,0.5-2,0.8C21.9,22.7,21.1,23,21.1,22.5z"/>
	<path class="st2" d="M28,22l-0.2-0.1l-0.2,0c-0.1,0-0.2,0-0.3,0l-0.6,0l-0.1,0l-0.1,0l-0.1,0l-0.3,0l0,0l0,0c-0.1,0-0.3,0-0.4,0
		l-0.3,0l-0.2,0l-0.1,0v0l-0.2,0c-0.5,0-0.9,0-1.3,0c-0.1,0-0.3-0.1-0.4,0c-0.3,0.1-0.6,0-1,0c-0.1,0-0.5,0.2-0.6,0.4
		c0,0.1,0,0.3,0,0.4c-0.1,0.3,0.1,0.8,0.3,0.7c0.2,0,0.4-0.1,0.6-0.1c0.2,0,0.4,0,0.6-0.1c0.2,0,0.3-0.2,0.5-0.1
		c0.2,0,0.3-0.1,0.5,0c0.2,0.1,0.5,0,0.7,0l0,0.1h0l0,0l0,0c0.3,0,0.7,0,1,0c0.4,0,0.8,0,1.2,0.1c0.2,0.1,0.5,0.2,0.7,0.3l0.2-0.1
		l0.1-0.1c0-0.1,0.1-0.2,0.1-0.4C28.1,22.5,28.1,21.9,28,22z"/>
	<path class="st2" d="M28.9,23.8c-0.1,0-0.4-0.1-0.3-0.4c0-0.2,0.1-0.3,0.2-0.4c0.1-0.2,0.2-0.4,0.3-0.5l0.2-0.2
		c0.1-0.1,0.3,0.1,0.4,0.1c0.2,0.1,0.4,0.3,0.6,0.5c0.2,0.1,0.5,0,0.5,0.6c-0.1,0.1-0.2,0.3-0.3,0.3C29.8,23.8,29.4,23.7,28.9,23.8
		L28.9,23.8z"/>
	<path class="st2" d="M31.6,24.3c-0.1,0-0.2-0.1-0.2-0.2c-0.1-0.3,0-1.2,0.3-1.2c0.2,0,0.3,0.2,0.4,0.3c0.1,0.1,0.4,0.4,0.2,0.7
		c-0.2,0.2-0.5,0.4-0.6,0.4H31.6z"/>
	<path class="st2" d="M33.7,24.1L33.7,24.1c-0.2,0.7-0.7,0.9-0.8,0.5c-0.1-0.3,0.1-1,0.3-1.2C33.5,23.3,33.8,23.7,33.7,24.1z"/>
	<path class="st0" d="M22,33.7c0.4,0.4,0.7,0.7,1.2,0.9c0.2,0.1,0.4,0.2,0.7,0.3c0.3,0.1,0.6,0.2,1.2,0.3c0.8,0.1,1.4,0,1.7-0.1
		c0.4-0.1,0.6-0.2,0.8-0.2c0.2-0.1,0.4-0.2,0.7-0.3c0.3-0.2,0.8-0.5,1.2-1c0.5-0.7,0.7-1.3,0.8-1.8c0.1-0.6,0-1.1-0.1-1.5
		c-0.1-0.5-0.3-1-0.4-1.4c-0.2-0.5-0.5-1-0.8-1.5c-0.2-0.3-0.4-0.6-0.8-0.9c-0.2-0.2-0.4-0.4-0.6-0.6c-0.2-0.2-0.5-0.5-0.8-0.7
		c-1.2-1-2.8-1.5-4.7-1.8c-0.1,0-0.3-0.1-0.5-0.1c-0.2,0-0.3-0.1-0.4-0.1c-0.9-0.1-1.5-0.1-1.7-0.1l0,0.2l-0.3,0
		c-0.5,1.4-0.3,3.1,0,4.4c0.3,1.1,0.4,1.8,0.6,2.5c0.1,0.4,0.3,0.7,0.4,1v0c0.2,0.4,0.3,0.6,0.5,0.9C21,32.5,21.3,32.9,22,33.7z"/>
	<path class="st1" d="M19.1,23c0-0.3,0.6-0.5,2.4-0.4c0.1,0,0.5,0.1,0.9,0.2c1.8,0.2,3.4,0.8,4.7,1.7c0.3,0.2,0.6,0.5,0.9,0.8
		c0.3,0.3,0.4,0.4,0.6,0.6c0.4,0.4,0.7,0.8,0.9,1.1c0.7,1.1,1.1,2.1,1.3,3.1c0.1,0.5,0.1,1,0.1,1.6c-0.1,0.6-0.3,1.3-0.8,1.9
		c-0.5,0.6-1,0.9-1.4,1.1c-0.4,0.2-0.6,0.3-0.8,0.4c-0.2,0.1-0.5,0.2-0.9,0.3c-0.4,0.1-1.1,0.2-2,0.1c-1.2-0.2-1.6-0.4-2.1-0.7
		c-0.4-0.2-0.8-0.5-1.2-0.9c-0.8-0.8-1.1-1.2-1.4-1.7c-0.3-0.5-0.6-1-0.9-1.9c-0.1-0.6-0.3-1.3-0.5-2.4c-0.3-1.4-0.5-3.2,0.1-4.6
		c0.2-0.5,0.8-0.3,0.9,0c0.1,0.5,0.1,1.5,0.1,2.2c0,0.8,0.1,1.6,0.2,2.2c0.1,0.7,0.2,1.2,0.3,1.7c0,0.1,0,0.2,0.1,0.3
		c0,0.1,0.1,0.3,0.1,0.4c0.1,0.2,0.2,0.4,0.3,0.6c0.2,0.4,0.4,0.7,0.6,1c0.4,0.6,0.8,1.1,1.9,2.1c0.6,0.5,1.3,0.9,2.3,1
		c1,0.1,2.2-0.3,3-0.9c0.6-0.5,0.8-0.9,0.9-1.2c0.1-0.3,0.2-0.6,0.2-0.8c0-0.5,0.1-1-0.3-2.2c-0.3-0.9-0.5-1.2-0.7-1.6
		c-0.2-0.3-0.4-0.7-1-1.4c-0.4-0.4-0.6-0.5-0.8-0.7c-0.3-0.2-0.5-0.4-1-0.7c-0.1-0.1-1.2-0.6-1.4-0.7c-0.3-0.1-1.6-0.5-1.9-0.5
		c-0.2,0-1.1-0.1-2-0.2C19.6,23.7,18.8,23.4,19.1,23z"/>
	<path class="st2" d="M24.6,26.2L24.5,26l-0.2-0.1L24,25.7l-0.4-0.4l-0.1-0.1l-0.1-0.1l-0.1-0.1L23.1,25l0,0l0,0
		c-0.1-0.1-0.2-0.2-0.3-0.2l-0.2-0.1l-0.2-0.1l-0.1,0l0,0l-0.1-0.1c-0.4-0.2-0.7-0.4-1-0.6c-0.1-0.1-0.2-0.2-0.3-0.2
		c-0.3-0.1-0.5-0.3-0.7-0.5c-0.1-0.1-0.5-0.1-0.7,0c-0.1,0.1-0.2,0.2-0.3,0.3c-0.2,0.2-0.4,0.6-0.2,0.7c0.2,0.1,0.4,0.2,0.5,0.2
		c0.2,0.1,0.3,0.2,0.5,0.3c0.1,0.1,0.3,0,0.5,0.1c0.1,0.1,0.3,0.1,0.4,0.2c0.1,0.2,0.4,0.2,0.5,0.3l0,0l0,0l0,0l0,0
		c0.2,0.1,0.5,0.3,0.7,0.4c0.3,0.2,0.6,0.4,0.8,0.6c0.1,0.2,0.2,0.4,0.3,0.6c0,0,0.1,0.1,0.2,0.1c0.1,0,0.1,0,0.2,0
		c0.1,0,0.2-0.1,0.3-0.2C24.3,26.7,24.7,26.2,24.6,26.2z"/>
	<path class="st2" d="M23.9,28c0-0.1-0.2-0.3,0.1-0.5c0.1-0.1,0.3-0.1,0.4-0.2c0.2-0.1,0.4-0.1,0.6-0.1c0.1,0,0.2,0,0.2,0
		c0.2,0,0.1,0.2,0.1,0.4c0.1,0.2,0,0.5,0,0.7c0,0.2,0.3,0.3-0.2,0.7c-0.2,0-0.4,0-0.4,0C24.5,28.6,24.2,28.3,23.9,28L23.9,28z"/>
	<path class="st2" d="M25,30.1c0-0.1,0-0.2,0.1-0.3c0.2-0.3,1-0.7,1.1-0.4c0.1,0.1,0,0.3,0,0.5c0,0.1-0.1,0.5-0.5,0.5
		C25.5,30.4,25.2,30.2,25,30.1L25,30.1z"/>
	<path class="st2" d="M26.3,31.5L26.3,31.5c-0.7,0.2-1.1,0-0.8-0.3c0.2-0.2,0.9-0.5,1.2-0.4C26.9,30.9,26.7,31.4,26.3,31.5z"/>
	<path class="st0" d="M12.3,36.3c0.2,0.3,0.4,0.9,1.2,1.6c0.5,0.4,1.1,0.8,1.6,0.9c0.6,0.2,1.3,0.2,1.8,0.1c1.3-0.3,2-1.2,2.4-1.9
		c0.4-0.7,0.8-1.4,1-2c0.3-0.6,0.4-1.2,0.6-1.7c0.3-1,0.6-2.1,0.7-4c0.1-1.6,0.3-3.9-0.4-6.1c-0.1-0.5-0.7-1.9-1.4-2.3l-0.3-0.1
		l0.1-0.1l0,0l-0.1,0.1l0,0l0,0l0,0l0,0l-0.1,0l-0.2,0.1l0,0l0,0l0,0c-0.2,0.1-0.6,0.5-1.1,1c-0.6,0.6-1.1,1.2-1.3,1.4
		c-0.2,0.2-1.2,1.2-1.4,1.5c-0.1,0.1-0.9,1.2-1,1.3c-0.6,0.9-0.7,1.1-1,1.8l-0.3,0.6l0,0.1c-0.4,1-0.6,1.4-0.7,1.9l-0.1,0.2
		c-0.1,0.4-0.3,0.9-0.4,1.9c-0.2,1.5,0,2.2,0.1,2.8C12.1,35.6,12.2,35.9,12.3,36.3z"/>
	<path class="st1" d="M19.3,20.6c0.2,0,0.4,0.1,0.4,0.4c0,0.3-0.2,0.8-0.8,1.5c-0.1,0.1-0.5,0.4-0.7,0.6c-1.3,1.3-2.5,2.5-3.3,3.9
		c-0.8,1.2-1.3,2.3-1.5,3.1c-0.5,1.3-0.6,2.4-0.6,3.5c0,1.1,0.1,2.2,0.9,3.3c0.4,0.5,0.7,0.7,1,0.9c0.2,0.2,0.4,0.2,0.5,0.3
		c0.1,0.1,0.3,0.1,0.6,0.2c0.3,0.1,0.7,0.1,1.2,0c0.7-0.2,1.1-0.6,1.4-1c0.3-0.4,0.6-0.8,1-1.5c0.7-1.3,0.9-2.1,1.2-2.9
		c0.2-0.8,0.5-1.6,0.6-3.1c0.1-1.3,0.2-2.8,0-4.4c-0.3-2-1-3.6-1.6-4.8c-0.2-0.5,0.6-0.4,1-0.2c0.7,0.4,1.3,1.6,1.5,2.5
		c0.6,2,0.5,4.5,0.3,6.3c-0.1,2-0.4,3.1-0.7,4.1c-0.3,1-0.6,2-1.6,3.8c-0.6,0.8-1.3,1.7-2.7,2c-0.7,0.2-1.4,0.1-2.2-0.1
		c-0.7-0.2-1.3-0.6-1.9-1.1c-0.8-0.7-1.1-1.3-1.3-1.7c-0.2-0.5-0.3-0.8-0.4-1.1c-0.1-0.6-0.3-1.3-0.1-2.9c0.1-1.2,0.3-1.7,0.4-2.2
		c0.2-0.5,0.3-1,0.8-2c0.6-1.2,0.6-1.2,1.3-2.4c0.1-0.2,0.9-1.3,1.1-1.4c0.2-0.3,1.2-1.3,1.4-1.4c0.1-0.1,0.7-0.7,1.3-1.3
		C18.3,21,18.9,20.3,19.3,20.6z"/>
	<path class="st0" d="M4.3,24c-0.4,0.3-0.8,0.6-1.1,0.9c-0.2,0.2-0.3,0.3-0.5,0.6c-0.2,0.2-0.4,0.5-0.7,1c-0.4,0.7-0.5,1.3-0.6,1.6
		c-0.1,0.4-0.1,0.6-0.1,0.8c0,0.2,0,0.4,0.1,0.8c0.1,0.4,0.3,0.9,0.8,1.5c0.7,0.7,1.5,1,2.1,1.2c0.8,0.2,1.6,0.2,2.1,0.1
		c0.8-0.1,1.4-0.2,2.1-0.4c0.7-0.2,1.4-0.5,2.1-0.9c0.7-0.4,1.8-1.1,2.8-2.4c1.1-1.2,2.1-3,2.6-5.2c0.1-0.2,0.1-0.4,0.2-0.6
		c0.1-0.2,0.1-0.4,0.1-0.4c0.2-1.1,0.1-1.6,0.1-1.9l-0.2,0l-0.1-0.3c-1.5-0.2-3.2,0-4.6,0.4c-1.2,0.3-2.3,0.6-3.3,1
		c-0.4,0.2-0.8,0.3-1.1,0.5h0c-0.4,0.2-0.7,0.4-1,0.5C5.7,23.1,5.2,23.4,4.3,24z"/>
	<path class="st1" d="M16.4,20.4c0.3-0.1,0.7,0.4,0.5,2.5c0,0.2-0.2,0.7-0.3,1C16,26,15.1,27.8,14,29.1c-1.1,1.3-2.2,2.2-3.1,2.7
		C9.5,32.6,8,33,6.6,33.2c-0.7,0.1-1.5,0.1-2.3-0.1c-0.8-0.2-1.7-0.6-2.4-1.4C1.2,31,1.1,30.4,1,29.9c-0.1-0.4-0.1-0.7-0.1-0.9
		c0-0.3,0-0.5,0.1-1c0.1-0.4,0.3-1.1,0.7-1.9c0.6-1,1-1.4,1.3-1.7c0.3-0.3,0.6-0.6,1.1-1C5,22.9,5.5,22.5,6,22.3
		c0.5-0.3,1.1-0.6,2.1-0.9c1-0.4,2-0.7,3.2-1c1.5-0.4,3.2-0.6,4.8-0.3c0.6,0.1,0.4,0.7,0.1,0.9c-0.6,0.3-1.6,0.3-2.4,0.3
		c-1.7,0.1-3.3,0.4-4.7,0.9c-1.4,0.5-2.1,0.9-2.8,1.3c-0.7,0.4-1.3,0.8-2.5,1.6c-0.6,0.5-1.2,1-1.7,1.9c-0.5,0.9-0.6,2.1,0,3.1
		c0.4,0.7,0.9,1,1.3,1.3c0.4,0.2,0.7,0.3,1,0.4c0.6,0.1,1.3,0.3,3-0.1c1.2-0.3,1.7-0.5,2.2-0.7c0.5-0.2,0.9-0.5,1.8-1.2
		c1-0.9,1-1,1.8-2c0.1-0.1,0.8-1.3,0.9-1.5c0.2-0.3,0.8-1.7,0.9-2.1c0-0.2,0.3-1.2,0.5-2.2C15.8,21,16,20.1,16.4,20.4z"/>
	<path class="st2" d="M12.4,26.6l0.2-0.1l0.1-0.2c0.1-0.1,0.1-0.2,0.2-0.3l0.5-0.5l0.1-0.1l0.1-0.1l0.1-0.1L14,25l0,0l0,0
		c0.1-0.1,0.2-0.2,0.3-0.4l0.2-0.3l0.1-0.2l0.1-0.1l0,0l0.1-0.2c0.3-0.4,0.5-0.8,0.8-1.2c0.1-0.1,0.2-0.2,0.3-0.3
		c0.1-0.3,0.4-0.6,0.5-0.9c0.1-0.1,0.1-0.6-0.1-0.7c-0.1-0.1-0.2-0.1-0.3-0.2c-0.2-0.2-0.7-0.3-0.8-0.1c-0.1,0.2-0.1,0.4-0.2,0.6
		c-0.1,0.2-0.2,0.4-0.3,0.6c-0.1,0.2-0.1,0.4-0.2,0.5c-0.1,0.1-0.1,0.3-0.3,0.4c-0.2,0.2-0.3,0.4-0.4,0.6l0,0l0,0l0,0l0,0
		c-0.2,0.3-0.4,0.6-0.6,0.8c-0.3,0.3-0.6,0.6-0.9,0.9C12,25,11.8,25,11.6,25.2c-0.1,0-0.1,0.1-0.1,0.2c0,0.1,0,0.1,0,0.2
		c0,0.1,0.1,0.2,0.2,0.3C11.9,26.3,12.3,26.7,12.4,26.6z"/>
	<path class="st2" d="M10.4,26c0.1-0.1,0.4-0.2,0.5,0.1c0.1,0.1,0.1,0.3,0.2,0.4c0,0.2,0.1,0.4,0.1,0.6c0,0.1,0,0.2,0,0.3
		c-0.1,0.2-0.3,0.1-0.4,0.2c-0.2,0.1-0.6,0-0.9,0.1c-0.3,0-0.4,0.3-0.8-0.1c0-0.2,0-0.4,0.1-0.5C9.6,26.6,10,26.4,10.4,26L10.4,26z"
		/>
	<path class="st2" d="M7.8,27.3c0.1,0,0.2,0,0.3,0.1c0.3,0.2,0.7,1,0.4,1.2c-0.2,0.1-0.4,0-0.6,0c-0.1,0-0.6-0.1-0.6-0.5
		c0-0.3,0.3-0.6,0.4-0.7L7.8,27.3z"/>
	<path class="st2" d="M5.8,28.5L5.8,28.5c-0.1-0.7,0.3-1.2,0.5-0.8c0.2,0.2,0.4,1,0.3,1.2C6.5,29.2,5.9,29,5.8,28.5z"/>
	<path class="st0" d="M3.2,16.5c-0.6,0.3-1.1,0.6-1.5,1c-0.2,0.2-0.4,0.4-0.6,0.7c-0.2,0.3-0.4,0.6-0.5,1.1
		c-0.2,0.8-0.2,1.4-0.1,1.7c0.1,0.4,0.1,0.6,0.2,0.8c0.1,0.2,0.1,0.4,0.3,0.7c0.2,0.4,0.4,0.8,0.9,1.3c0.6,0.6,1.2,0.9,1.6,1
		c0.6,0.2,1.1,0.2,1.5,0.3c0.5,0,1,0,1.5-0.1c0.5-0.1,1.1-0.2,1.6-0.3c1.2-0.3,3.6-1.3,6.9-4.1c0.1-0.1,0.3-0.2,0.4-0.3
		c0.1-0.1,0.3-0.2,0.3-0.3c0.7-0.7,1-1.2,1.2-1.4l-0.2-0.1l0.1-0.3c-1-1.1-2.4-2-4-2.5c-1.3-0.4-2.6-0.6-3.9-0.6
		c-0.6,0-1.1,0-1.5,0.1h0c-0.5,0.1-1,0.1-1.4,0.2C5.2,15.7,4.4,15.9,3.2,16.5z"/>
	<path class="st1" d="M17,18.4c0.3,0.1,0.3,0.8-1.1,2.2c-0.1,0.1-0.5,0.4-0.8,0.6c-3.1,2.7-5.6,3.8-7,4.2c-1.2,0.3-2.2,0.4-3.2,0.4
		c-0.5,0-1-0.1-1.5-0.3c-0.6-0.2-1.2-0.5-1.8-1.1c-0.6-0.6-0.8-1.1-1-1.5c-0.2-0.4-0.2-0.6-0.3-0.9c-0.1-0.2-0.1-0.5-0.2-0.9
		c0-0.4-0.1-1.1,0.1-2c0.4-1.2,0.8-1.6,1.2-2C1.8,16.7,2.3,16.3,3,16c1.3-0.6,2.1-0.9,2.9-1c0.8-0.2,1.6-0.3,3-0.3
		c1.3,0,2.7,0.2,4,0.6c1.7,0.5,3.1,1.5,4.1,2.7c0.4,0.5-0.1,0.8-0.5,0.8c-0.6-0.1-1.4-0.8-2-1.2c-1.4-0.9-3.1-1.5-4.8-1.7
		C7.9,15.8,6.9,16,6,16.2c-0.9,0.2-1.8,0.5-3.4,1.4c-0.7,0.5-1.4,1.2-1.7,2.1c-0.3,1,0,2.2,0.6,3c0.4,0.7,0.8,0.9,1.1,1.1
		c0.3,0.2,0.5,0.3,0.8,0.3c0.5,0.1,0.9,0.3,2.2,0.2c0.9,0,1.3-0.1,1.7-0.2c0.4-0.1,0.8-0.2,1.7-0.5c1-0.4,1-0.5,2-1.1
		c0.1-0.1,1.1-0.7,1.3-0.8c0.2-0.1,1.4-1,1.7-1.2c0.1-0.1,0.9-0.8,1.6-1.5C16.1,18.5,16.8,18,17,18.4z"/>
	<path class="st2" d="M10.7,21.2l0.2,0l0.2-0.1c0.1,0,0.2-0.1,0.3-0.2l0.6-0.2l0.1,0l0.1,0l0.1,0l0.3-0.1l0,0l0,0
		c0.1,0,0.3-0.1,0.4-0.1l0.3-0.1l0.2-0.1l0.1-0.1l0,0l0.2-0.1c0.4-0.2,0.8-0.3,1.2-0.4c0.1,0,0.3,0,0.4-0.1c0.3-0.2,0.6-0.2,0.9-0.3
		c0.1-0.1,0.4-0.4,0.4-0.6c0-0.1-0.1-0.3-0.1-0.4c0-0.3-0.4-0.7-0.5-0.6c-0.2,0.1-0.4,0.2-0.5,0.3c-0.2,0.1-0.4,0.2-0.6,0.3
		c-0.1,0.1-0.3,0.3-0.4,0.3c-0.2,0-0.3,0.2-0.5,0.2c-0.2,0-0.5,0.2-0.7,0.2l0-0.1l0,0v0l0,0c-0.3,0.1-0.6,0.3-0.9,0.4
		c-0.4,0.1-0.8,0.2-1.2,0.4c-0.3,0-0.5-0.1-0.8,0c-0.1,0-0.1,0.1-0.2,0.2c0,0.1-0.1,0.1-0.1,0.1c0,0.1,0,0.2,0,0.4
		C10.3,20.7,10.5,21.3,10.7,21.2z"/>
	<path class="st2" d="M9.2,19.8c0.1,0,0.4,0,0.4,0.3c0,0.2,0,0.3,0,0.4c0,0.2-0.1,0.4-0.1,0.6c0,0.1-0.1,0.2-0.1,0.2
		c-0.1,0.1-0.3,0-0.4,0c-0.2,0-0.5-0.2-0.7-0.3C8,21,7.8,21.2,7.6,20.7c0-0.1,0.1-0.4,0.2-0.4C8.3,20.2,8.7,20,9.2,19.8L9.2,19.8z"
		/>
	<path class="st2" d="M6.5,20.3c0.1,0,0.2,0,0.3,0.1c0.2,0.3,0.3,1.1,0.1,1.2c-0.2,0.1-0.3-0.1-0.5-0.1c-0.1,0-0.5-0.2-0.4-0.6
		c0.1-0.3,0.3-0.5,0.5-0.6L6.5,20.3z"/>
	<path class="st2" d="M4.5,21.1L4.5,21.1c-0.1-0.7,0.4-1.1,0.6-0.7c0.2,0.3,0.2,1,0.1,1.3C5,21.9,4.6,21.6,4.5,21.1z"/>
	<path class="st0" d="M11.9,7.4c-0.5-0.3-0.8-0.4-1.3-0.5c-0.2-0.1-0.4-0.1-0.8-0.2c-0.3,0-0.7-0.1-1.2,0C7.8,6.7,7.3,6.9,7,7
		C6.6,7.1,6.4,7.3,6.2,7.4C6,7.5,5.8,7.6,5.6,7.8c-0.3,0.3-0.7,0.6-1,1.3c-0.3,0.8-0.3,1.6-0.2,2.1C4.6,12,4.9,12.6,5.1,13
		c0.3,0.6,0.7,1.1,1.1,1.5c0.4,0.5,0.9,0.9,1.5,1.3c0.6,0.4,1.5,1,2.9,1.4c1.3,0.4,3,0.6,5.1,0.5c0.2,0,0.4,0,0.5,0
		c0.2,0,0.3,0,0.4,0c1-0.1,1.5-0.3,1.8-0.4l-0.1-0.2l0.3-0.1c0-1.5-0.5-3-1.3-4.3c-0.6-1.1-1.3-2-2-2.7c-0.3-0.3-0.6-0.6-0.8-0.8v0
		c-0.3-0.3-0.6-0.5-0.8-0.7C13.2,8.1,12.7,7.8,11.9,7.4z"/>
	<path class="st1" d="M18.6,17.3c0.1,0.3-0.3,0.7-2.3,1c-0.1,0-0.6,0-1,0c-2,0.1-3.7-0.1-5.1-0.5c-1.4-0.4-2.4-1-3.1-1.5
		c-1.2-0.9-2-1.9-2.7-2.9c-0.3-0.6-0.6-1.1-0.7-1.9c-0.1-0.7-0.1-1.5,0.2-2.4c0.4-0.8,0.8-1.2,1.1-1.5c0.3-0.3,0.5-0.4,0.7-0.5
		c0.2-0.1,0.5-0.2,0.9-0.4c0.4-0.2,1.1-0.4,2-0.4c1.2,0,1.7,0.1,2.2,0.2c0.5,0.1,0.9,0.3,1.4,0.5c0.9,0.5,1.4,0.7,1.8,1.1
		c0.5,0.3,0.9,0.7,1.6,1.5c0.7,0.8,1.4,1.7,2,2.8c0.8,1.4,1.3,3,1.2,4.6c0,0.6-0.6,0.6-0.9,0.3c-0.3-0.5-0.5-1.5-0.7-2.2
		c-0.4-1.6-1.2-3.1-2.1-4.1c-0.9-1.1-1.5-1.6-2.1-2c-0.6-0.4-1.1-0.8-2.4-1.4C10.1,7.2,9.3,6.9,8.3,7c-1,0.1-2.1,0.7-2.7,1.5
		C5.2,9.2,5.1,9.7,5,10.1c0,0.4,0,0.7,0.1,0.9c0.1,0.3,0.1,0.5,0.3,0.9c0.2,0.4,0.4,0.8,0.8,1.4c0.6,0.9,1,1.2,1.4,1.5
		c0.3,0.3,0.7,0.6,1.6,1.1c1,0.5,1.1,0.5,2.2,0.7c0.2,0,1.3,0.3,1.5,0.3c0.3,0.1,1.7,0.2,2,0.1c0.2,0,1.1-0.1,2.1-0.2
		C17.9,16.8,18.8,16.8,18.6,17.3z"/>
	<path class="st2" d="M12.2,15.5l0.1,0.1l0.2,0.1c0.1,0,0.2,0,0.3,0.1l0.5,0.3l0.1,0l0.1,0l0.1,0l0.3,0.1l0,0l0,0
		c0.1,0.1,0.2,0.1,0.4,0.2l0.3,0.1l0.2,0.1l0.1,0l0,0l0.2,0.1c0.4,0.1,0.8,0.3,1.2,0.4c0.1,0,0.2,0.1,0.3,0.2c0.3,0,0.6,0.2,0.9,0.3
		c0.1,0,0.5,0,0.7-0.2c0.1-0.1,0.1-0.2,0.2-0.4c0.2-0.2,0.2-0.7,0-0.8c-0.2,0-0.4,0-0.6-0.1c-0.2,0-0.4-0.1-0.6-0.1
		c-0.2,0-0.4,0-0.5,0c-0.1-0.1-0.3,0-0.5-0.2c-0.2-0.1-0.4-0.2-0.7-0.2l0,0l0,0l0,0l0,0c-0.3-0.1-0.6-0.2-0.9-0.3
		c-0.4-0.1-0.7-0.3-1.1-0.5c-0.2-0.2-0.3-0.4-0.5-0.5c-0.1,0-0.1,0-0.2,0c-0.1,0-0.1,0-0.2,0.1c-0.1,0-0.2,0.2-0.2,0.3
		C12.3,14.9,12.1,15.4,12.2,15.5z"/>
	<path class="st2" d="M12.2,13.5c0.1,0.1,0.3,0.2,0.1,0.5c-0.1,0.1-0.2,0.2-0.3,0.3c-0.2,0.1-0.3,0.2-0.5,0.3l-0.2,0.1
		c-0.2,0-0.2-0.2-0.3-0.3c-0.2-0.2-0.2-0.5-0.3-0.7c-0.1-0.2-0.4-0.3-0.1-0.7c0.1-0.1,0.4-0.2,0.4-0.1C11.4,13,11.7,13.3,12.2,13.5
		L12.2,13.5z"/>
	<path class="st2" d="M10.2,11.8c0.1,0.1,0.1,0.2,0.1,0.3c-0.1,0.3-0.7,1-0.9,0.8c-0.2-0.1-0.1-0.3-0.2-0.5c0-0.1-0.1-0.6,0.2-0.7
		C9.6,11.6,10,11.6,10.2,11.8L10.2,11.8z"/>
	<path class="st2" d="M8.4,10.6L8.4,10.6c0.6-0.4,1.1-0.3,0.9,0.1c-0.1,0.3-0.7,0.8-1,0.8C8,11.5,8.1,10.9,8.4,10.6z"/>
	<path class="st0" d="M18.9,14.5l-0.1,0c-0.1,0-0.2,0.1-0.4,0.2c-0.3,0.2-0.3,0.3-0.3,0.5c0,0.2,0,0.3,0,0.5l0,0.1
		c0,0.2,0,0.7,0.6,1.5l0.1,0.1l0.1,0c0.3-0.2,0.5-0.4,0.6-0.6c0.1-0.2,0.3-0.5,0.4-0.7c0.1-0.3,0.2-0.4,0.2-0.6l0-0.1
		c0-0.1,0-0.2,0-0.4l0-0.2c0-0.2-0.1-0.3-0.2-0.3c-0.1-0.1-0.2-0.1-0.4-0.2C19,14.4,18.9,14.4,18.9,14.5z"/>
	<path class="st1" d="M19,17.7c-0.1,0.1-0.2,0.3-0.7,0.1l-0.1-0.2c-0.7-0.8-0.7-1.6-0.7-1.9c0-0.3,0-0.4,0.1-0.6
		c0.1-0.2,0.3-0.4,0.6-0.6c0.3-0.2,0.4-0.2,0.5-0.3c0.1,0,0.2-0.1,0.5-0.2c0.2,0,0.4,0,0.6,0c0.2,0.1,0.4,0.1,0.6,0.4
		c0.3,0.6,0.2,0.9,0.1,1.1c0,0.2-0.1,0.4-0.2,0.7c-0.1,0.3-0.3,0.5-0.4,0.8C19.6,17.3,19.4,17.5,19,17.7c-0.1,0-0.3-0.2-0.4-0.3
		c0-0.2,0.2-0.3,0.3-0.4c0.3-0.2,0.5-0.5,0.7-0.8c0.2-0.4,0.2-0.6,0.2-0.8c0-0.2,0-0.5-0.2-0.7c-0.2-0.2-0.7-0.2-1,0
		c-0.2,0.1-0.3,0.2-0.4,0.3c0,0.1-0.1,0.1-0.2,0.3c-0.1,0.3-0.1,0.3,0,0.7c0,0.2,0.1,0.2,0.1,0.4l0.1,0.3l0.2,0.4
		C18.6,17,19.3,17.4,19,17.7z"/>
	<path class="st0" d="M21.7,15l-0.1,0c-0.1,0-0.2,0-0.4,0c-0.3,0-0.4,0.1-0.6,0.2c-0.1,0.1-0.2,0.2-0.3,0.4l0,0.1
		c-0.1,0.2-0.4,0.6-0.3,1.6l0,0.2l0,0.1c0.3,0,0.6-0.1,0.8-0.2c0.2-0.1,0.5-0.3,0.7-0.4c0.2-0.2,0.4-0.3,0.5-0.4l0.1-0.1
		c0.1-0.1,0.1-0.1,0.2-0.3l0.1-0.1c0-0.2,0-0.3,0-0.4c-0.1-0.1-0.1-0.2-0.3-0.4C21.8,15,21.7,15,21.7,15z"/>
	<path class="st1" d="M20.1,17.8c-0.1,0.1-0.4,0.2-0.6-0.3c0,0,0-0.2,0-0.3c-0.1-1.1,0.2-1.7,0.4-2c0.2-0.2,0.3-0.4,0.4-0.5
		c0.2-0.1,0.5-0.2,0.9-0.2c0.4,0,0.4,0,0.5,0c0.1,0,0.2,0,0.5,0.1c0.2,0.1,0.3,0.2,0.5,0.3c0.1,0.1,0.2,0.3,0.2,0.7
		c-0.1,0.7-0.3,0.8-0.4,1c-0.1,0.2-0.3,0.3-0.6,0.5c-0.3,0.2-0.5,0.3-0.8,0.5C20.8,17.8,20.5,17.9,20.1,17.8c-0.1,0-0.2-0.4-0.1-0.5
		c0.1-0.2,0.3-0.2,0.5-0.2c0.4,0,0.7-0.1,1-0.3c0.3-0.2,0.5-0.4,0.6-0.6c0.1-0.2,0.3-0.4,0.2-0.6c-0.1-0.3-0.5-0.5-0.8-0.6
		c-0.3,0-0.4,0-0.4,0c-0.1,0-0.1,0-0.3,0.2c-0.2,0.3-0.2,0.2-0.4,0.5c-0.1,0.2-0.1,0.2-0.1,0.4l0,0.3l0,0.4
		C20.1,17.1,20.5,17.7,20.1,17.8z"/>
	<path class="st0" d="M23.8,16.9L23.8,16.9c-0.2-0.1-0.2-0.2-0.4-0.3c-0.3-0.1-0.4-0.1-0.6-0.1c-0.2,0-0.3,0.1-0.4,0.2l-0.1,0
		c-0.2,0.1-0.7,0.3-1.1,1.2l-0.1,0.1l0,0.1c0.3,0.2,0.5,0.2,0.8,0.3c0.3,0,0.5,0,0.8,0c0.3,0,0.4,0,0.6-0.1l0.1,0
		c0.1,0,0.2-0.1,0.3-0.1l0.1-0.1c0.1-0.1,0.2-0.2,0.2-0.3c0-0.1,0-0.2,0-0.4C23.9,17.1,23.8,17,23.8,16.9z"/>
	<path class="st1" d="M20.9,18.5c-0.2,0-0.4-0.1-0.4-0.6l0.1-0.2c0.4-1,1.1-1.4,1.4-1.5c0.3-0.1,0.4-0.2,0.6-0.2
		c0.2,0,0.5,0.1,0.9,0.3c0.3,0.2,0.4,0.2,0.5,0.3c0.1,0.1,0.1,0.1,0.4,0.4c0.1,0.2,0.2,0.4,0.2,0.5c0,0.2,0,0.4-0.1,0.7
		c-0.4,0.5-0.7,0.5-0.9,0.6c-0.2,0.1-0.4,0.1-0.7,0.1c-0.3,0-0.6,0-0.9,0C21.6,18.9,21.2,18.8,20.9,18.5c-0.1-0.1,0-0.4,0.1-0.5
		c0.1-0.1,0.3,0,0.5,0.1c0.3,0.2,0.7,0.3,1.1,0.3c0.4,0,0.6-0.1,0.8-0.1c0.2-0.1,0.4-0.2,0.5-0.4c0.1-0.3-0.1-0.7-0.4-0.9
		c-0.2-0.2-0.3-0.2-0.4-0.2c-0.1,0-0.1,0-0.4,0c-0.3,0.1-0.3,0.1-0.6,0.3C22,17,22,17.1,21.8,17.2l-0.2,0.2l-0.2,0.3
		C21.4,17.9,21.3,18.6,20.9,18.5z"/>
	<path class="st0" d="M24.5,19.7l0-0.1c0-0.1-0.1-0.2-0.2-0.4c-0.2-0.3-0.3-0.3-0.5-0.4c-0.2,0-0.3-0.1-0.4-0.1l-0.1,0
		c-0.2,0-0.7-0.1-1.5,0.5l-0.1,0.1l0,0.1c0.1,0.3,0.3,0.5,0.6,0.6c0.2,0.2,0.4,0.3,0.7,0.4c0.2,0.1,0.4,0.2,0.6,0.2l0.1,0
		c0.1,0,0.2,0.1,0.3,0.1l0.2,0c0.2,0,0.3-0.1,0.3-0.2c0.1-0.1,0.2-0.2,0.2-0.4C24.6,19.9,24.5,19.8,24.5,19.7z"/>
	<path class="st1" d="M21.3,19.5c-0.1-0.1-0.3-0.3,0-0.7l0.2-0.1c0.9-0.6,1.7-0.6,1.9-0.6c0.3,0,0.4,0.1,0.6,0.2
		c0.2,0.1,0.4,0.4,0.6,0.7c0.2,0.3,0.2,0.4,0.2,0.5c0,0.1,0.1,0.2,0.1,0.5c0,0.2,0,0.4-0.1,0.6c-0.1,0.1-0.2,0.3-0.5,0.5
		c-0.6,0.2-0.9,0.1-1.1,0.1c-0.2-0.1-0.4-0.1-0.7-0.3c-0.3-0.1-0.5-0.3-0.7-0.5C21.6,20.2,21.4,19.9,21.3,19.5
		c0-0.1,0.2-0.3,0.3-0.3c0.2,0,0.3,0.2,0.4,0.3c0.2,0.3,0.5,0.6,0.8,0.8c0.3,0.2,0.6,0.3,0.8,0.3c0.2,0,0.5,0.1,0.7-0.1
		c0.2-0.2,0.3-0.7,0.1-1c-0.1-0.3-0.2-0.3-0.2-0.4c-0.1-0.1-0.1-0.1-0.3-0.2c-0.3-0.1-0.3-0.1-0.6-0.1c-0.2,0-0.2,0-0.4,0.1L22.5,19
		l-0.4,0.2C22,19.2,21.6,19.8,21.3,19.5z"/>
	<path class="st0" d="M23.7,22.4l0-0.1c0-0.1,0-0.2,0.1-0.4c0-0.3-0.1-0.4-0.2-0.6c-0.1-0.1-0.2-0.2-0.3-0.3L23.2,21
		c-0.2-0.1-0.6-0.4-1.6-0.4l-0.2,0l-0.1,0c0,0.3,0,0.6,0.1,0.8c0.1,0.2,0.2,0.5,0.3,0.7c0.1,0.2,0.2,0.4,0.3,0.5l0.1,0.1
		c0.1,0.1,0.1,0.2,0.3,0.2l0.1,0.1c0.2,0.1,0.3,0.1,0.4,0c0.1,0,0.2-0.1,0.4-0.2C23.7,22.6,23.7,22.5,23.7,22.4z"/>
	<path class="st1" d="M21.1,20.6C21,20.4,21,20.2,21.4,20c0,0,0.2,0,0.3,0c1.1,0,1.7,0.4,1.9,0.6c0.2,0.2,0.3,0.3,0.4,0.5
		c0.1,0.2,0.1,0.5,0.1,0.9c0,0.4,0,0.4-0.1,0.5c0,0.1,0,0.2-0.2,0.5c-0.1,0.2-0.2,0.3-0.4,0.4c-0.1,0.1-0.3,0.2-0.7,0.2
		c-0.6-0.1-0.8-0.4-0.9-0.5c-0.1-0.2-0.3-0.3-0.4-0.6c-0.2-0.3-0.3-0.5-0.4-0.8C21,21.4,21,21,21.1,20.6c0-0.1,0.4-0.1,0.5-0.1
		c0.2,0.1,0.2,0.3,0.2,0.5c0,0.4,0.1,0.7,0.2,1.1c0.2,0.3,0.3,0.5,0.5,0.7c0.2,0.1,0.3,0.3,0.6,0.3c0.3-0.1,0.6-0.4,0.6-0.8
		c0-0.3,0-0.4,0-0.4c0-0.1,0-0.1-0.2-0.3c-0.2-0.2-0.2-0.2-0.5-0.4c-0.2-0.1-0.2-0.1-0.4-0.1l-0.3-0.1l-0.4-0.1
		C21.8,20.7,21.2,21,21.1,20.6z"/>
	<path class="st0" d="M21.6,24.3L21.6,24.3c0.2-0.1,0.2-0.2,0.4-0.4c0.2-0.3,0.2-0.4,0.1-0.6c0-0.2-0.1-0.3-0.1-0.4l0-0.1
		c-0.1-0.2-0.3-0.7-1.1-1.2l-0.1-0.1l-0.1,0c-0.2,0.2-0.3,0.5-0.3,0.8c0,0.3-0.1,0.5-0.1,0.8c0,0.3,0,0.4,0,0.6l0,0.1
		c0,0.1,0,0.2,0.1,0.3l0.1,0.1c0.1,0.1,0.2,0.2,0.3,0.2c0.1,0,0.2,0.1,0.4,0C21.5,24.5,21.6,24.4,21.6,24.3z"/>
	<path class="st1" d="M20.3,21.4c0-0.2,0.1-0.4,0.6-0.3l0.2,0.2c0.9,0.5,1.3,1.2,1.4,1.5c0.1,0.3,0.1,0.4,0.1,0.6
		c0,0.2-0.1,0.5-0.4,0.8c-0.2,0.3-0.3,0.4-0.3,0.4c-0.1,0.1-0.1,0.1-0.4,0.3c-0.2,0.1-0.4,0.2-0.5,0.2c-0.2,0-0.4,0-0.7-0.2
		c-0.5-0.4-0.5-0.7-0.5-0.9c0-0.2-0.1-0.4-0.1-0.8c0-0.3,0.1-0.6,0.1-0.9C19.9,22,20,21.7,20.3,21.4c0.1-0.1,0.4,0.1,0.4,0.2
		c0.1,0.2,0,0.3-0.1,0.5c-0.2,0.3-0.3,0.7-0.3,1c0,0.4,0,0.6,0.1,0.8c0.1,0.2,0.1,0.5,0.4,0.5c0.3,0.1,0.7-0.1,1-0.3
		c0.2-0.2,0.2-0.3,0.2-0.4c0-0.1,0.1-0.1,0-0.4c-0.1-0.3,0-0.3-0.2-0.6c-0.1-0.2-0.1-0.2-0.3-0.3l-0.2-0.2L21,21.9
		C20.9,21.9,20.2,21.8,20.3,21.4z"/>
	<path class="st0" d="M18.8,24.9l0.1,0c0.1,0,0.2,0,0.4-0.1c0.3-0.2,0.4-0.3,0.4-0.4c0.1-0.2,0.1-0.3,0.1-0.4l0-0.1
		c0-0.2,0.1-0.7-0.3-1.6l0-0.2l0,0c-0.3,0.1-0.5,0.3-0.7,0.5c-0.2,0.2-0.3,0.4-0.5,0.6c-0.2,0.2-0.2,0.4-0.3,0.5l0,0.1
		c0,0.1-0.1,0.2-0.1,0.3l0,0.2c0,0.2,0.1,0.3,0.1,0.3c0.1,0.1,0.2,0.2,0.4,0.2C18.6,24.9,18.7,24.9,18.8,24.9z"/>
	<path class="st1" d="M19.3,21.7c0.1-0.1,0.3-0.3,0.7,0.1L20,22c0.5,1,0.4,1.7,0.4,2c-0.1,0.3-0.1,0.4-0.2,0.6
		c-0.1,0.2-0.4,0.4-0.7,0.5c-0.3,0.2-0.4,0.2-0.5,0.2c-0.1,0-0.2,0.1-0.5,0.1c-0.2,0-0.4-0.1-0.6-0.1c-0.1-0.1-0.3-0.2-0.5-0.5
		c-0.2-0.6,0-0.9,0-1.1c0.1-0.2,0.2-0.4,0.3-0.7c0.2-0.3,0.4-0.5,0.6-0.7C18.6,21.9,18.9,21.7,19.3,21.7c0.1,0,0.3,0.3,0.3,0.4
		c0,0.2-0.2,0.3-0.4,0.4c-0.3,0.2-0.6,0.4-0.8,0.7c-0.2,0.3-0.3,0.5-0.4,0.7c-0.1,0.2-0.1,0.4,0,0.7c0.2,0.2,0.6,0.3,1,0.2
		c0.3-0.1,0.3-0.1,0.4-0.2c0.1-0.1,0.1-0.1,0.2-0.3c0.1-0.3,0.1-0.3,0.2-0.6c0-0.2,0-0.2-0.1-0.4l-0.1-0.3l-0.1-0.4
		C19.5,22.4,18.9,21.9,19.3,21.7z"/>
	<path class="st0" d="M16.2,23.8l0.1,0.1c0.1,0,0.2,0.1,0.4,0.1c0.3,0,0.4,0,0.6-0.1c0.1-0.1,0.2-0.2,0.3-0.3l0.1-0.1
		c0.1-0.2,0.5-0.6,0.5-1.5l0-0.2l0-0.1c-0.3,0-0.6,0-0.9,0.1c-0.3,0.1-0.5,0.2-0.8,0.3c-0.3,0.1-0.4,0.2-0.5,0.3L16,22.4
		c-0.1,0.1-0.2,0.1-0.3,0.2l-0.1,0.1c-0.1,0.2-0.1,0.3-0.1,0.4c0,0.1,0.1,0.2,0.2,0.4C16,23.8,16.1,23.8,16.2,23.8z"/>
	<path class="st1" d="M18.2,21.3c0.1-0.1,0.4-0.1,0.5,0.4c0,0,0,0.2,0,0.3c-0.1,1.1-0.5,1.7-0.7,1.9c-0.2,0.2-0.3,0.3-0.5,0.4
		c-0.2,0.1-0.5,0.1-0.9,0.1c-0.4,0-0.4-0.1-0.5-0.1c-0.1,0-0.2-0.1-0.5-0.2c-0.2-0.1-0.3-0.3-0.4-0.4c-0.1-0.1-0.2-0.3-0.1-0.7
		c0.2-0.6,0.5-0.7,0.6-0.9c0.2-0.1,0.4-0.3,0.6-0.4c0.3-0.1,0.6-0.2,0.8-0.3C17.5,21.2,17.8,21.2,18.2,21.3c0.1,0,0.1,0.4,0.1,0.5
		c-0.1,0.2-0.3,0.1-0.5,0.1c-0.4,0-0.7,0-1.1,0.1c-0.4,0.1-0.5,0.3-0.7,0.4c-0.2,0.2-0.3,0.3-0.3,0.6c0,0.3,0.4,0.6,0.7,0.7
		c0.3,0.1,0.4,0.1,0.4,0.1c0.1,0,0.1,0,0.3-0.1c0.3-0.2,0.2-0.2,0.5-0.5c0.1-0.2,0.1-0.2,0.2-0.4l0.1-0.3l0.1-0.4
		C18,22.1,17.8,21.4,18.2,21.3z"/>
	<path class="st0" d="M14.4,21.5l0.1,0.1c0.1,0.1,0.1,0.1,0.3,0.3c0.3,0.2,0.4,0.2,0.6,0.2c0.2,0,0.3,0,0.4-0.1l0.1,0
		c0.2-0.1,0.7-0.2,1.3-1l0.1-0.1l0-0.1c-0.2-0.2-0.5-0.3-0.8-0.4c-0.3-0.1-0.5-0.1-0.8-0.2c-0.3,0-0.4,0-0.6,0l-0.1,0
		c-0.1,0-0.2,0-0.3,0.1l-0.1,0.1c-0.2,0.1-0.2,0.2-0.2,0.3c0,0.1-0.1,0.2,0,0.4C14.3,21.4,14.4,21.5,14.4,21.5z"/>
	<path class="st1" d="M17.5,20.5c0.2,0,0.4,0.1,0.2,0.6l-0.2,0.2c-0.6,0.9-1.3,1.1-1.6,1.2c-0.3,0.1-0.4,0.1-0.7,0.1
		c-0.2,0-0.5-0.2-0.8-0.4c-0.3-0.2-0.3-0.3-0.4-0.4c0-0.1-0.1-0.1-0.3-0.5c-0.1-0.2-0.1-0.4-0.1-0.6c0-0.2,0-0.4,0.3-0.7
		c0.5-0.4,0.8-0.4,1-0.4c0.2,0,0.4,0,0.8,0c0.3,0,0.6,0.1,0.9,0.2C16.9,20,17.2,20.2,17.5,20.5c0.1,0.1-0.1,0.4-0.2,0.4
		c-0.2,0.1-0.3-0.1-0.5-0.2c-0.3-0.2-0.6-0.4-1-0.4c-0.4-0.1-0.6,0-0.8,0c-0.2,0-0.5,0.1-0.6,0.3c-0.1,0.3,0,0.7,0.2,1
		c0.2,0.2,0.3,0.2,0.3,0.3c0.1,0,0.1,0.1,0.3,0.1c0.3,0,0.3,0,0.6-0.1c0.2-0.1,0.2-0.1,0.4-0.3l0.2-0.2l0.3-0.3
		C17,21,17.1,20.3,17.5,20.5z"/>
	<path class="st0" d="M14.2,18.7l0,0.1c0,0.1,0,0.2,0.1,0.4c0.1,0.3,0.2,0.4,0.4,0.5c0.1,0.1,0.3,0.1,0.4,0.2l0.1,0
		c0.2,0,0.7,0.2,1.6-0.2l0.2,0l0.1,0c-0.1-0.3-0.2-0.5-0.4-0.7c-0.2-0.2-0.4-0.4-0.6-0.6c-0.2-0.2-0.4-0.3-0.5-0.3l-0.1-0.1
		c-0.1,0-0.2-0.1-0.3-0.1l-0.2,0c-0.2,0-0.3,0.1-0.3,0.1c-0.1,0.1-0.2,0.2-0.3,0.3C14.2,18.5,14.2,18.6,14.2,18.7z"/>
	<path class="st1" d="M17.3,19.4c0.1,0.1,0.3,0.3-0.1,0.7l-0.3,0.1c-1,0.4-1.7,0.3-2,0.2c-0.3-0.1-0.4-0.1-0.6-0.3
		c-0.2-0.1-0.3-0.4-0.5-0.8c-0.1-0.3-0.1-0.4-0.1-0.5c0-0.1,0-0.2,0-0.5c0-0.2,0.1-0.4,0.2-0.5c0.1-0.1,0.2-0.3,0.6-0.4
		c0.6-0.1,0.9,0.1,1.1,0.1c0.2,0.1,0.4,0.2,0.6,0.4c0.2,0.2,0.4,0.4,0.6,0.6C17.1,18.7,17.3,19,17.3,19.4c0,0.1-0.3,0.3-0.4,0.3
		c-0.2,0-0.3-0.2-0.3-0.4c-0.1-0.3-0.3-0.7-0.6-0.9c-0.3-0.3-0.5-0.4-0.7-0.4c-0.2-0.1-0.4-0.2-0.7,0c-0.3,0.2-0.4,0.6-0.3,1
		c0.1,0.3,0.1,0.3,0.1,0.4c0.1,0.1,0.1,0.1,0.3,0.2c0.3,0.1,0.3,0.1,0.6,0.2c0.2,0,0.2,0,0.4,0l0.3,0l0.4-0.1
		C16.6,19.6,17.1,19.1,17.3,19.4z"/>
	<path class="st0" d="M15.4,16.1l-0.1,0.1c0,0.1-0.1,0.2-0.1,0.4c-0.1,0.3,0,0.4,0.1,0.6c0.1,0.1,0.2,0.2,0.3,0.4l0.1,0.1
		c0.2,0.1,0.5,0.5,1.5,0.7l0.1,0.1l0.1,0c0.1-0.3,0.1-0.6,0-0.9c-0.1-0.3-0.1-0.5-0.2-0.8c-0.1-0.3-0.2-0.4-0.2-0.6l-0.1-0.1
		c-0.1-0.1-0.1-0.2-0.2-0.3l-0.1-0.1c-0.2-0.1-0.3-0.1-0.3-0.1c-0.1,0-0.2,0-0.4,0.2C15.5,16,15.5,16.1,15.4,16.1z"/>
	<path class="st1" d="M17.7,18.4c0.1,0.2,0,0.4-0.5,0.5c0,0-0.2-0.1-0.3-0.1c-1.1-0.2-1.6-0.7-1.8-0.9c-0.2-0.2-0.3-0.3-0.4-0.6
		c-0.1-0.2,0-0.5,0-0.9C15,16.2,15,16.1,15,16c0-0.1,0.1-0.2,0.3-0.5c0.2-0.2,0.3-0.3,0.4-0.4c0.1-0.1,0.3-0.1,0.7-0.1
		c0.6,0.2,0.7,0.5,0.8,0.7c0.1,0.2,0.2,0.4,0.3,0.7c0.1,0.3,0.2,0.6,0.2,0.9C17.9,17.7,17.9,18.1,17.7,18.4c0,0.1-0.4,0.1-0.5,0
		c-0.1-0.1-0.1-0.3-0.1-0.5c0.1-0.4,0.1-0.7-0.1-1.1c-0.1-0.4-0.2-0.6-0.4-0.7c-0.1-0.2-0.3-0.4-0.6-0.4c-0.3,0-0.6,0.3-0.8,0.7
		c-0.1,0.3-0.1,0.3-0.1,0.4c0,0.1,0,0.2,0.1,0.3c0.2,0.3,0.1,0.3,0.4,0.5c0.2,0.1,0.2,0.1,0.4,0.2l0.3,0.1l0.4,0.1
		C17,18.2,17.7,18,17.7,18.4z"/>
	<path class="st0" d="M17.4,16.9L17.3,17c-0.1,0-0.2,0.1-0.3,0.3c-0.2,0.2-0.2,0.4-0.2,0.5c0,0.2,0.1,0.3,0.1,0.4l0,0.1
		c0.1,0.2,0.4,0.7,1.3,0.9l0.1,0l0.1,0c0.1-0.3,0.2-0.5,0.2-0.8c0-0.2,0-0.4,0-0.6c0-0.2,0-0.3,0-0.4l0-0.1c0-0.1,0-0.1-0.1-0.2
		L18.5,17c-0.1-0.1-0.2-0.2-0.2-0.2c-0.1,0-0.2-0.1-0.4,0C17.6,16.8,17.5,16.9,17.4,16.9z"/>
	<path class="st1" d="M18.8,19.3c0,0.1,0,0.4-0.5,0.5l-0.2-0.1c-1-0.1-1.5-0.9-1.7-1.2c-0.1-0.3-0.2-0.5-0.1-0.7
		c0-0.2,0.2-0.4,0.5-0.7c0.2-0.3,0.3-0.3,0.4-0.4c0.1,0,0.1-0.1,0.5-0.3c0.2-0.1,0.4-0.1,0.5-0.1c0.2,0,0.4,0,0.6,0.2
		c0.4,0.4,0.3,0.6,0.3,0.7c0,0.1,0,0.2,0,0.5c0,0.2,0,0.4-0.1,0.7C19.1,18.6,19,18.9,18.8,19.3c0,0.1-0.4,0.1-0.4,0
		c-0.1-0.1,0-0.3,0-0.5c0.1-0.3,0.2-0.7,0.2-0.9c0-0.3,0-0.4,0-0.6c0-0.2-0.1-0.3-0.3-0.4c-0.3-0.1-0.7,0-1,0.3
		c-0.2,0.2-0.3,0.2-0.3,0.3c0,0.1-0.1,0.1-0.1,0.3c0.1,0.3,0,0.3,0.2,0.6c0.1,0.2,0.2,0.2,0.3,0.3l0.2,0.2l0.4,0.1
		C18.2,19,18.8,18.9,18.8,19.3z"/>
	<path class="st0" d="M15.8,20.3l0,0.1c0,0.1,0.1,0.2,0.2,0.4c0.2,0.3,0.4,0.3,0.5,0.3c0.2,0,0.3,0,0.5,0l0.1,0
		c0.2-0.1,0.7-0.2,1.2-0.9l0.1-0.1l0-0.1c-0.2-0.2-0.4-0.4-0.6-0.5c-0.2-0.1-0.5-0.2-0.7-0.2c-0.2-0.1-0.4-0.1-0.5-0.1l-0.1,0
		c-0.1,0-0.2,0-0.3,0l-0.1,0c-0.1,0.1-0.2,0.1-0.2,0.2c-0.1,0.1-0.1,0.2-0.1,0.4C15.8,20.1,15.8,20.2,15.8,20.3z"/>
	<path class="st1" d="M18.6,19.8c0.1,0.1,0.3,0.2,0.1,0.7l-0.2,0.1c-0.5,0.7-1.1,1-1.5,1c-0.3,0-0.5,0.1-0.8,0
		c-0.3-0.1-0.5-0.3-0.7-0.7c-0.2-0.3-0.2-0.4-0.2-0.5c0-0.1,0-0.2-0.1-0.5c0-0.2,0-0.4,0.1-0.5c0-0.1,0.1-0.3,0.3-0.5
		c0.4-0.3,0.5-0.2,0.7-0.2c0.2,0,0.3,0,0.6,0.1c0.3,0.1,0.5,0.2,0.8,0.3C18.2,19.2,18.5,19.4,18.6,19.8c0,0.1-0.1,0.3-0.2,0.4
		c-0.1,0-0.3-0.1-0.4-0.2c-0.3-0.3-0.6-0.4-0.9-0.5c-0.3-0.1-0.5-0.1-0.7-0.1c-0.2,0-0.3,0-0.5,0.2c-0.1,0.2-0.1,0.7,0,1
		c0.1,0.3,0.2,0.3,0.3,0.4c0.1,0,0.1,0.1,0.3,0.1c0.3,0,0.3,0,0.6-0.1c0.2-0.1,0.2-0.1,0.3-0.2l0.2-0.2l0.3-0.3
		C18.1,20.2,18.3,19.5,18.6,19.8z"/>
	<path class="st0" d="M17.8,23.1l0.1,0c0.1,0,0.2,0,0.4,0c0.3,0,0.4-0.2,0.5-0.3c0.1-0.1,0.1-0.2,0.2-0.4l0-0.1
		c0-0.2,0.1-0.6-0.3-1.3l0-0.1l0,0c-0.3,0-0.5,0.1-0.7,0.3c-0.2,0.1-0.4,0.3-0.5,0.4c-0.2,0.2-0.2,0.3-0.3,0.3l-0.1,0.1
		c0,0.1-0.1,0.1-0.1,0.2l0,0.1c0,0.1,0,0.2,0.1,0.2c0.1,0.1,0.1,0.2,0.3,0.3C17.6,23,17.7,23.1,17.8,23.1z"/>
	<path class="st1" d="M18.6,20.7c0.1-0.1,0.3-0.1,0.6,0.2l0.1,0.2c0.4,0.7,0.4,1.3,0.3,1.5c-0.1,0.2-0.2,0.4-0.3,0.6
		c-0.2,0.2-0.5,0.3-0.9,0.3c-0.3,0-0.4-0.1-0.5-0.1c-0.1,0-0.2,0-0.5-0.2c-0.2-0.1-0.3-0.2-0.5-0.3c-0.1-0.1-0.3-0.2-0.3-0.4
		c-0.1-0.4,0.1-0.5,0.1-0.6c0.1-0.1,0.2-0.2,0.4-0.4c0.2-0.2,0.4-0.3,0.6-0.5C17.8,20.8,18.1,20.6,18.6,20.7c0.1,0,0.2,0.3,0.2,0.3
		c0,0.1-0.2,0.2-0.4,0.2c-0.3,0.1-0.6,0.2-0.9,0.4c-0.2,0.2-0.3,0.4-0.4,0.5c-0.1,0.1-0.2,0.3,0,0.5c0.2,0.2,0.5,0.4,0.9,0.4
		c0.3,0,0.4,0,0.4,0c0.1,0,0.1-0.1,0.3-0.2c0.1-0.3,0.2-0.2,0.2-0.5c0-0.2,0-0.2-0.1-0.4l-0.1-0.2l-0.1-0.3
		C18.7,21.3,18.2,20.8,18.6,20.7z"/>
	<path class="st0" d="M19.5,16.5l-0.1,0c-0.1,0-0.2,0-0.4,0c-0.3,0.1-0.4,0.3-0.5,0.4c-0.1,0.2-0.1,0.3-0.1,0.5l0,0.1
		c0,0.2,0,0.8,0.6,1.4l0.1,0.1l0.1,0c0.3-0.1,0.5-0.3,0.6-0.6c0.1-0.2,0.3-0.4,0.4-0.6c0.1-0.2,0.2-0.3,0.2-0.4l0-0.1
		c0-0.1,0.1-0.1,0.1-0.2l0-0.1c0-0.1-0.1-0.2-0.1-0.2c-0.1-0.1-0.2-0.1-0.3-0.2C19.7,16.6,19.6,16.5,19.5,16.5z"/>
	<path class="st1" d="M19.3,19.4c-0.1,0.1-0.3,0.3-0.7,0l-0.1-0.2c-0.7-0.7-0.7-1.5-0.7-1.8c0-0.3,0.1-0.6,0.3-0.8
		c0.2-0.3,0.5-0.5,0.9-0.5c0.4,0,0.4,0,0.5,0c0.1,0,0.2,0,0.5,0.2c0.2,0.1,0.4,0.2,0.5,0.3c0.1,0.1,0.3,0.2,0.4,0.4
		c0.1,0.4,0,0.5,0,0.6c-0.1,0.1-0.1,0.3-0.3,0.5c-0.1,0.2-0.3,0.4-0.4,0.7C20,19,19.7,19.3,19.3,19.4c-0.1,0-0.3-0.2-0.3-0.3
		c0-0.2,0.2-0.3,0.3-0.4c0.3-0.2,0.5-0.5,0.7-0.7c0.2-0.3,0.2-0.4,0.3-0.6c0-0.2,0.1-0.3,0-0.5c-0.2-0.2-0.6-0.4-0.9-0.3
		c-0.3,0-0.4,0.1-0.4,0.1c-0.1,0.1-0.1,0.1-0.2,0.3c-0.1,0.4-0.1,0.3-0.1,0.7c0,0.2,0,0.2,0.1,0.4l0.1,0.3l0.2,0.3
		C19,18.8,19.6,19.1,19.3,19.4z"/>
	<path class="st0" d="M22.1,17.9L22,17.7c0-0.1-0.1-0.2-0.3-0.3c-0.3-0.2-0.5-0.2-0.6-0.2c-0.2,0-0.3,0.1-0.5,0.2l-0.1,0
		c-0.1,0.1-0.3,0.2-0.5,0.4c-0.2,0.2-0.5,0.6-0.6,1.1l-0.1,0.2l0,0.1c0.3,0,0.6,0,0.8,0c0.2,0,0.5,0,0.7,0c0.2,0,0.4,0,0.5,0l0.1,0
		c0.1,0,0.2,0,0.3-0.1L22,19c0.1-0.1,0.2-0.2,0.2-0.2c0-0.1,0.1-0.2,0-0.4C22.2,18,22.1,17.9,22.1,17.9z"/>
	<path class="st1" d="M19.4,19.6c-0.1,0.1-0.4,0.2-0.6-0.3c0,0,0-0.2,0.1-0.3c0.1-0.7,0.4-1.1,0.7-1.4c0.3-0.3,0.6-0.4,0.8-0.5
		c0.3-0.1,0.5-0.2,0.8-0.2c0.3,0,0.6,0.1,0.9,0.4c0.2,0.3,0.3,0.4,0.3,0.4c0,0.1,0.1,0.2,0.2,0.5c0.1,0.2,0.1,0.4,0.1,0.6
		c0,0.2,0,0.3-0.2,0.6c-0.3,0.4-0.6,0.3-0.7,0.4c-0.2,0-0.4,0.1-0.6,0.1l-0.7,0C20.2,19.6,19.8,19.6,19.4,19.6
		c-0.1,0-0.2-0.4-0.1-0.5c0.1-0.2,0.4-0.1,0.5-0.1c0.4,0.1,0.7,0.2,1,0.2c0.3,0,0.5,0,0.7-0.1c0.2-0.1,0.4-0.1,0.5-0.3
		c0.1-0.3,0-0.7-0.2-1c-0.2-0.2-0.3-0.2-0.4-0.3c-0.1,0-0.2-0.1-0.4,0c-0.4,0.1-0.3,0-0.7,0.3c-0.2,0.1-0.2,0.2-0.3,0.4l-0.2,0.3
		l-0.2,0.4c0,0,0,0.2,0,0.4C19.6,19.3,19.6,19.5,19.4,19.6z"/>
	<path class="st0" d="M21.6,22.1L21.6,22.1c0.1-0.2,0.2-0.2,0.3-0.4c0.1-0.3,0-0.5,0-0.6c-0.1-0.2-0.2-0.3-0.3-0.4l-0.1-0.1
		c-0.2-0.1-0.5-0.5-1.4-0.6L20,20l-0.1,0c-0.1,0.3-0.1,0.6-0.1,0.8c0.1,0.3,0.1,0.5,0.2,0.7c0.1,0.2,0.1,0.4,0.2,0.5l0.1,0.1
		l0.2,0.2l0.1,0.1c0.1,0.1,0.2,0.1,0.3,0.1c0.1,0,0.2,0,0.4-0.1C21.5,22.3,21.5,22.2,21.6,22.1z"/>
	<path class="st1" d="M19.6,20c0-0.2,0-0.4,0.5-0.5l0.2,0.1c0.9,0.1,1.5,0.5,1.7,0.7c0.2,0.2,0.3,0.4,0.4,0.7c0.1,0.3,0.1,0.6-0.1,1
		c-0.2,0.3-0.3,0.4-0.3,0.4c-0.1,0.1-0.1,0.1-0.4,0.3c-0.2,0.1-0.4,0.2-0.5,0.2c-0.1,0-0.3,0.1-0.6,0c-0.4-0.2-0.5-0.4-0.5-0.5
		c-0.1-0.1-0.2-0.3-0.3-0.6c-0.1-0.3-0.2-0.6-0.2-0.8C19.3,20.7,19.4,20.3,19.6,20c0.1-0.1,0.4-0.1,0.4,0c0.1,0.1,0.1,0.3,0,0.5
		c-0.1,0.4-0.1,0.7,0,1c0.1,0.3,0.2,0.5,0.3,0.6c0.1,0.1,0.2,0.3,0.4,0.3c0.3,0,0.6-0.2,0.8-0.5c0.1-0.2,0.1-0.3,0.2-0.4
		c0-0.1,0-0.2-0.1-0.4c-0.2-0.3-0.1-0.3-0.4-0.5c-0.2-0.1-0.2-0.1-0.4-0.2l-0.3-0.1l-0.4-0.1C20.2,20.2,19.5,20.4,19.6,20z"/>
	<path class="st0" d="M18.7,18.7l-0.1,0c-0.1,0-0.2,0-0.4,0c-0.3,0.1-0.4,0.2-0.4,0.3c0,0.1-0.1,0.2-0.1,0.4l0,0.1
		c0,0.2,0.1,0.6,0.7,0.9l0.1,0.1l0.1,0c0.2-0.1,0.4-0.3,0.5-0.5c0.1-0.2,0.2-0.3,0.3-0.4c0.1-0.1,0.1-0.2,0.2-0.3l0-0.1l0-0.2l0-0.1
		l-0.1-0.1c-0.1,0-0.2-0.1-0.4-0.1C18.9,18.8,18.8,18.7,18.7,18.7z"/>
	<path class="st1" d="M18.9,20.7c-0.1,0.1-0.2,0.2-0.7,0.2l-0.1-0.1c-0.7-0.4-0.9-0.9-0.9-1.2c0-0.3,0-0.4,0.2-0.6
		c0.1-0.2,0.4-0.4,0.8-0.4c0.3,0,0.4,0,0.5,0c0.1,0,0.2,0,0.5,0.1c0.2,0.1,0.4,0.1,0.5,0.2c0.1,0.1,0.3,0.1,0.4,0.2
		c0.2,0.2,0.1,0.3,0,0.4c0,0.1-0.1,0.2-0.2,0.3c-0.1,0.1-0.2,0.3-0.4,0.5C19.5,20.3,19.2,20.5,18.9,20.7c-0.1,0-0.3-0.1-0.4-0.1
		c0-0.1,0.1-0.2,0.2-0.3c0.3-0.2,0.5-0.4,0.6-0.6c0.1-0.2,0.2-0.3,0.2-0.4c0-0.1,0.1-0.2-0.1-0.3c-0.2-0.1-0.6-0.2-1-0.2
		c-0.3,0-0.3,0.1-0.4,0.1C18,19,18,19,17.9,19.2c-0.1,0.3-0.1,0.2,0,0.5c0,0.1,0.1,0.2,0.2,0.3l0.1,0.2l0.2,0.2
		C18.5,20.4,19.1,20.4,18.9,20.7z"/>
</g>
</svg>
