<?xml version="1.0" encoding="utf-8"?>
<!-- Generator: Adobe Illustrator 27.8.0, SVG Export Plug-In . SVG Version: 6.00 Build 0)  -->
<svg version="1.0" id="Layer_1" xmlns="http://www.w3.org/2000/svg" xmlns:xlink="http://www.w3.org/1999/xlink" x="0px" y="0px"
	 viewBox="0 0 512 512" style="enable-background:new 0 0 512 512;" xml:space="preserve">
<style type="text/css">
	.st0{fill-rule:evenodd;clip-rule:evenodd;}
</style>
<g>
	<path class="st0" d="M125.2,361.2l-0.5,2L125.2,361.2L125.2,361.2z M473.5,266.7v1.7c-0.2,6.6-2.2,12.9-4.7,17.4
		c-3.4,6.2-2.8,4.3-2.7,13.9c0.1,8.6-0.1,20.3-6.8,25.4c-2.6,2-7.3,4.1-10.7,4.9c0.1,5.5,1.7,4.7,2.7,9.3c1.8,8.3-2.2,7-4.1,10.4
		c-0.2,0.4-1.1,3.5-1.3,4.2l-9.5,12.6c-7.4,9.1-3.2,19.2-7.2,25.9c-1.8,3.1-9.1,8.2-13.7,8.4c-10.9,0.6-31.9-7.9-37.9-1.2
		c-3.2,3.7-4.4,10.7-4.4,17.7c4.2,2.8,3.5,3.7,11,3.7l25.9,1.7c13.5,1.6,27.9-0.1,36.2,5.2c4.2,2.7,3.4,4.2,6.7,7.1
		c11.8,10.6-1.9,9.7-5.5,7.3c-3.2-2.2-2.4-4.2-5.1-6.8c-6.4-6.1-18.2-0.8-7.5,2v6.4c-3.1,0.7-6.6,0.4-9.1-1.9
		c-1.3-1.2-0.4,0.2-1.4-2.2l-1.4-6.9h-3.7c-1.1,4.6,1.2,6.5-0.9,11c-11.3,5.4-0.2-11.6-9.3-12.9c-9.1-1.3-4.3,5-6.3,13.8h-5.5
		c-0.5-22.7-16.6-14-16.5-8.3c0.1,7.7,30.8,10.9,36.9,23.7c4.4,9.2,1.4,11.2-5.7,11.2c-1.2-2.3-1.7-4.1-2.7-6.5
		c-1.5-3.4-1.8-3.9-3.7-4.6c-1.1,2.4,0.2,7.6-1.8,11.9c-7-0.6-4.6-4.1-6.1-10.5c-2.3-9.8-6.3-9.1-12.8-11.1c-8.4-2.6-8.6-6-17.9-6
		c-7,14.5,8.1,9.8,12.4,20.7c1.7,4.3,1.4,5.2-0.4,8.7c-11.4,0-4.9-8.4-14.7-9.2c0.9,3.7,1.8,5.4,0,9.2c-1,0.5-1.9,0.8-2.6,0.9h-2.3
		c-3.6-0.9-4.5-6.1-5.6-10.7c-3.3-14.1,6-22.5-8-17.1c-3.4,1.3-4.1,1.3-7.1,3.1c-10.4,6-2.8,6.7-6.6,14.6c-4.2,2-6.5,0-7.2-3.9
		c-1-5.7,1.5-5-0.1-9c-8.8,2.3-0.3,13.8-11,14.7c-0.4-4.6-0.8-2-0.2-6.5c0.5-3.3,0.9-3.5,1.1-6.3c-11,0.9-3.2,10.2-12.9,11
		c-3.5-7.3-0.4-16.6,6.5-19.2c7.7-2.9,7.8,0.2,23.4-6c7-2.8,14.1-6.2,16.8-12.6c2.2-5.1-1.2-16.5,1.2-25.4
		c5.2-18.8,34.9-17.9,23.6-35.1l-6.2-4.8c-3.2-1.9-6.3-4.1-9.6-5.2c-9.7-3-10.5-3.4-16.5-2.3c-2.1,0.4-4,0.3-6.2,0.6
		c-3.5-1.2-2.3-1.1-6.4-1l2.8-3c-10.5-2.4-2-2.8-18.4-2.8c0.5,6.1,1.6,3.1-1.8,8.3c-6.7-0.6-7.8-1.3-9.2-7.4
		c5.5-6.3,9.9-4.6,21.1-4.6c-0.9-3.4-0.9-1.2-1.8-4.6c8.3,0.2,5.2,7.1,15.6,7.4c-4.1-7.7-3.7-4.9-3.7-16.5c6,1.6-0.1,4.3,7.2,13
		c7.7,9.2,26.7,5.8,37.8,21.9c6.1,8.8,13.8,9.4,19.4,10.9c3.7,1,3.7,1.3,7.4,0.3c20.6-6,5.4-21.3,10-25.9c6.3-3,4.6,1.8,12.9,1.8
		c3.5-7.3,0.5-10.9-6.8-13.4l-18.9-5c2.2-3.3,1.4-2.5,4.8-2.2l14,2.7c2.7,0.6,4.6,0.8,6.7,1.1l3-2.6c0-11.6-2.3-8.6-1.8-14.6
		c0.5-5.6,2.8-6.8,8.3-7.4c21.4-2.6,8.2-13.7,2.2-27l-4.4-11.3c-2.4-5.5-6.9-17.3-7-24.2H422c0,7.2,1.5,10.4-6.4,10.2
		c-6.5-0.2-8.2-2-8.3-8.4c-7.5,5-7.9,3.2-13.8,1.8c2.9-4.3,3.9-2,7.9-4.9c2.7-1.9,2.7-4.2,5.7-6.3c6.4-4.7,8.7,2.1,19.5,2.1l1.2-7.1
		c0.4-2.2,1.4-5.8,1.6-8.6c-2.9-1.5-5.2-3.1-8.1-4.8c-7.7-4.5-22.2-8.3-29.6-8.1c-16.9,0.3-22.6,11.7-24.1,26.5
		c-3,29.5-15.8,45.8-44,56.9l-7.9-0.8l4.2-4.4c3.7-0.5,14.2-5.6,17.5-8.4c-7.7,0.6-6.9,4.2-15.8,0l-2.4-5.5
		c-0.1-0.4-2.4-3.1,1.5-6.6c4.1-3.6,7.6-1.3,10.3,1.1c0,4,0.4,4.5-0.9,7.4c3-0.7,6.1-2.2,8.3-3.7c13.9-9.5,18.3-22.6,21.6-38.1
		c0.9-4.1,0.6-6.1,1.9-10.1c1.2-3.7,2.3-4.5,3.1-7.9c-4.7,3.1-7.6,6.2-12.5,9.6c-14.6,10.1-17.5,6.6-36,13.7
		c-1.4,0.5-2.7,0.9-4.2,1.4c-3.7,1.3-3.4,1.6-8,2.1c-16.9,2.1-14.4,9.5-24.5,19.6c-4.2,4.2-8.2,5.8-14,8c-4.3,1.6-14,4.5-15.8-2
		c7.2-0.6,17.2-4.3,22.1-7.3c5.2-3.1,10.2-10.5,13.7-15.7c-8.8,0-2.8-0.9-13.8,0c1.7,1,3.6,0.9,5.5,0.9c0.9,3.7,2.3,6.9-2,8.2
		c-8.3,2.4-11.3-7.3-6.4-12c2.3-2.2,5.1-1.8,9.3-1.7c15.2,0.2,11-2.1,20.2-2.8c6.4-0.5,13.3-2.6,17.5-5.5c-3-4.1-16.3-8.3-21.8-8.6
		c-3.8-0.2-2.9-0.2-6,2.8l-11.2,9.1c-8.2,5.8-22.2,7-26.9,12.6c-10.8,12.8-12.9,26.1-17.1,42.6c-1.4,5.5-2,10.4-4.3,15.9
		c-4.4,10.7-5.5,23.3-5.5,35c0.1,10.7-4.5,23.1-1.2,33.3c3.9,12.1,5.7,22.8,2.3,34.9c-1.5,5.2-2.8,10.1-6.6,12.7
		c-1.5-3.1,2.3-14.9,2.7-20.3c1-13-1.6-15.2-1.8-22.9c-3.7,1-2.2,1.1-4,5.2c-4,9.2-27.1,30-37.4,25.1c1.8-2.5,10.8-7.2,14.2-9.7
		c4.5-3.4,8.7-6.7,12.5-10.5c17.8-17.6,11.3-54.6,16.8-76.9c2-7.9,9.1-28.2,9.8-36.2l-2.8,4.6c-2.2,4.4-3,9.9-4.7,14.6
		c-0.8,2.2-1,2.5-1.9,5.5c-1.8,6.4-8.7,14.9-13.3,19.7c-2.4,2.4-4.2,3.8-6.3,6.6c-13.5,17.5-31.3,19.7-47.9,32
		c-11.2,8.4-17.7,20.4-17.7,35.6h-2.8c0-8.2-0.1-11.9,1.9-18.3c0.8-2.5,1.6-4.7,3-7.1c1.5-2.4,2.6-3.1,3.3-5.9
		c-8,1.9-16.3,2.3-20.5-3.5c-5.2-7.2,0.9-11.8,11.3-9.4c1.9,4,2.3,7-1.9,8.2l-3,0.8c-0.1-0.2-0.5,0.1-0.7,0.2
		c17.5,4.1,29.6-9.5,44-15.7c14.5-6.3,17.1-9.2,27-19.9c13.3-14.4,18.2-18.7,23.5-38.1c3-10.9,21.9-41.5,29.3-46.1
		c2.4-1.5,2.8-1.8,5.8-2.5c5.7-1.4,11.7-3.2,16.3-6.7c4.1-3.1,14.2-19.7,30.9-11.8c14,6.7,18.1,8.8,35.5,4.6
		c14.1-3.5,16.8-12.7,28.7-18.2c11.5-5.4,26.6-2.9,39.6-1.9c8.5,0.7,15.9,5.1,22,8.3c-0.1-5.5-2.8-14.2-4.2-19.7
		c-3.1-12.2-6.6-24.3-12.4-35.4c-1.3-2.5-3.1-4.5-4.6-7.4c-1.4-2.7-2.5-5-4-8c-3.9-7.9-21-30.9-29.5-29.2
		c-21.7,4.4-31.3,34.3-38.4,45.2c-2,3.1-7.6,12.1-9.8,14.1c-4.5,4-8.6,7.2-14.4,9.5l-17.9,6c-12.9,5.1-20.3,6.7-29.6,18.2
		c-3.1,3.8-4.7,12.8-9,13.9c-0.2-10.6-0.2-12.6,7.4-21.1c1.3-1.5-0.6,0.4,1.3-1.4c17.4-17.3,41.1-14.6,55.2-26.6l3.8-3.3
		c3.7-2.8,3.7-3.4,5-8.3c1.6-1.2,3.9-5,4.7-7.4c3.8-5.1,4.5-0.5,4.8-10.1c1.8-1.8,4.4-7.6,6.4-10.7c5.6-8.5,12.1-15.8,21.4-20.9
		c3-1.6,3-0.9,4.9-3.4c-13.6-7.2-25.1-16.4-37.6-12.8c-13.5,3.9-13.3,1.7-30.4,9.1c-13.2,5.7-12,4.4-25.2,14.3
		c-6.2,4.7-8.3,6.5-13,12.7c-4.1,5.5-7.7,9.4-11.8,14.8c-9.8,12.9-12.3,20-17.6,34.8c-4.5,12.4-2.5,33.4-5.6,46.7
		c-2.6,10.9-6.7,39.9-8.6,43.8c-1.7,3.6-6.7,4.7-6-0.4c0-0.1,1.3-3.6,1.7-4.9c3-10.9,7.2-38.5,7.2-49.8c-2.7,1.8-2.9,3-6.1,4.9
		c-6.3,3.8-7.3,4.2-11.2,10.9c-3.6,6-5.8,18.6-8.1,25c-2.5,7.1-6.4,13.4-6.8,15.1l-4.4-3.5c0.6-3.2,3.6-5.1,6.4-13.7
		c1.2-3.7,3.6-10.9,3.6-15.7l-26.5,4.7c-2.8,0.3-5.2,1.1-8.2,1.9c-4.8,1.2-10.9,3.6-15.2,5.9c-5.9,3.3-13.1,12.8-14.7,16.5
		c-3.2,7.6-3.8,16.9-5.5,24.9c-1.1,5.2-0.5,13.8-0.6,20.5c-0.2,11.2-6.4,8.3-10.2,10c0.6-7.4,4.4-0.7,6.1-8.6
		c0.8-3.7,0.3-10.3,0.3-14.4c0-10.5,2.7-21.3,2.8-25.7c-2.9,1.9-3.9,3.9-6.8,6.1c-2.8,2.1-5.2,2.5-7,5c8.4,0,8,5.1,3.7,10.1
		c-13.7,0-13.3-8.7-7.5-13.1c3.1-2.3,5.3-2.9,8.2-5.5c12.7-11.3,14.2-17,19.3-22.1c20.8-20.7,47.5-14,61-20.8c5-2.5,3.8-3,6.4-7.4
		c7.4-12.4,17.3-10,20-20.5c2-7.8,1.7-16,3.9-23.7c2.5-8.8,4.3-9.5,6.7-14.4c4-8.3,5.2-13.2,11.9-22.1c13.7-18.2,20.6-29,40.7-41.1
		c8.6-5.2,11-5.5,19-8.6c6.4-2.4,12.8-5.6,20.9-5.7v-1.8c-17.8-4.1-33-12-56-10.1c-8,0.7-19.9,5.2-25.8,8.2
		c-6.3,3.2-12.7,11.2-16.1,16.9c-9.5,15.8-8.9,29.4-13.3,45.5c-3.6,13-1.4,15.9-8.8,33.5c-1,2.4-4.6,8.8-6,10.5
		c-1.6,1.7-5.5,3.6-5.9,6.9c-0.5,4.6-0.4,1.2,0.6,2.6c0.5-6.5,5-5.7,9.2-3.7c0,6.9,0.5,12.6-8.8,9.8c-4.1-1.2-8.3-6.8-4.5-11.6
		c5.8-6.3,8.8-2.9,9.1-14.7l0.5-1.8l0.8-0.9c2.8-6.4,4-2.5,4.1-13.8c1.4-2.4,2.3-6.4,2.4-10.1c-2.6,0.2-3,0.4-5,1.5
		c-1.3,0.7-0.9,0.5-1.7,1.1c-1.2,0.8-0.8,0.5-1.6,1.3c-4,0.3-6,1.4-7.4-1c7.9-5.2,1.4-1.9,11.5-6.9c4.2-2.1,6.1-5.1,7.3-10.2l6-28.9
		c-1,0.5-1.1,0.6-2.3,1.4c-10.3,7.6-20.7,15.9-31.7,22.5c-5.1,3.1-16.5,10.4-20,14c-4.3,4.4-6.9,7.2-10.7,12.2
		c-17.8,23.2-4.1,55.9-29.3,85.6c-2.1,2.5-3.7,3.5-5.8,6.2c-8.7,11.3-19.5,19.2-23.1,34c-4.1,17,1.3,25.9-10.8,45.2
		c-1.7,2.8-2.8,4.1-6.1,5c0.6-6.9,7.8-10.8,10.5-28.1c5.7-36.6-3.6-18.8,16.1-48.2C77.8,268,85.2,311.7,50,319
		c-5.5,1.1-6.5-0.1-13-0.1c1-3.7,0.6-2.7,5.5-2.8c3.3-0.1,4.4,0,6.7-0.7c21.2-6.7,25-25,35.1-42.1c9.9-16.7,18.1-2.5,29-16.9
		c7.6-10.1,8.5-4.8,17.7-28.2c6.3-16.1,3.3-33.4,10.2-50.4c6.6-16.4,2.5-6.7,11.8-19.4c5.9-8,9.1-9.3,16.3-14
		c6.1-4,12.3-7.9,18.4-12c6.2-4.1,21-15.2,25.5-20.5c12.5-14.9,2.9-8.4,19.3-19.3c10-6.6,26.2-14.3,38-15.3
		c4.1-0.3,10.5-0.1,14.7,0.1c5,1.8,4.1,2.6,11,2.3l0.9,0.2c4.6,4.1,8.4,5,16.5,4c2.9,1.6,26.8,4.6,31.1,6.4c2.1,0.9,1.3,0.9,4.4,2.1
		c1.6,0.6,3,1,4.2,1.4l39,23.5c9.4,8,21.7,24.7,26.8,34.8l7.6,17.2c6.2-4.2,10.9-15.2,11-23.4c1.8,0.3,3.4,0.6,4.9,1.1
		c0.7,0.2,1.3,0.5,1.9,0.9c1.4,0.9,0.7,0.3,1.6,1.2c-0.3,7.2-1.2,7.9-3.9,12.7c-10.9,19.7-8.6,19.4-4,35.4c1.4,4.9,2.4,7.6,3.7,12.8
		c1.1,4.6,2.1,8.2,3.1,12.5c1.7,7.2,1.3,5.9,6.7,9.8c9.4,6.8,17.4,15,20.7,27.1C473.1,261.7,473.4,264.2,473.5,266.7L473.5,266.7z
		 M128,360.2l2,0.5L128,360.2L128,360.2z M126.1,360.2l-0.9,0.9L126.1,360.2L126.1,360.2z M128,360.2h-1.8
		C127.5,358.9,126.6,358.9,128,360.2L128,360.2z M336.6,347.4L336.6,347.4L336.6,347.4z M109.6,292.2c0,4.7,0,1.5-0.9,2.8
		C108.7,290.1,108.7,293.6,109.6,292.2L109.6,292.2z M110.5,291.3l-0.9,0.9L110.5,291.3L110.5,291.3z M111.4,290.4l-0.9,0.9
		L111.4,290.4L111.4,290.4z M337.5,284.9l1.8-1.1L337.5,284.9L337.5,284.9z M330.1,281.2c-1,0.6,0,0.5-1.9,0.8
		c-0.8,0.1-1.8,0.1-2.7,0.1v-0.9H330.1L330.1,281.2z M125.2,279.4L125.2,279.4L125.2,279.4z M323.7,279.4c0.3-3.6-0.6-2.8,2.8-3.7
		L323.7,279.4L323.7,279.4z M411.2,245.5c7.3,1.6,6.4,6.6,5.8,7.8c-1.3,2.3-3,1.2-4.4-0.1c-3.2-3,0.7-2.8-4.3-4.2L411.2,245.5
		L411.2,245.5z M445.9,244.5c1.6-0.8,3-1.1,4.6-1.8c3.9,5.8,9.9,8.9,12.2,13.5c9,17.9-11.8,19.7-15.6-2.8
		C446.5,249.1,447.5,247.7,445.9,244.5L445.9,244.5z M195.1,208.6h3.7c-1.7,1.1,2.1,1-1.8,0.8C194.9,209.2,196.1,209.3,195.1,208.6
		L195.1,208.6z M195.1,208.6l-0.9-0.9L195.1,208.6L195.1,208.6z M207,160.8L207,160.8L207,160.8z M217.1,115.8l-0.9,1.8L217.1,115.8
		L217.1,115.8z M217.1,115.8L217.1,115.8L217.1,115.8z"/>
	<path class="st0" d="M292.5,309.7l3.6,1c-0.3,3.3-1.8,6.7-2.8,9.9c-1.4,4.5-1.1,5.6-7.3,5.6C286,311.8,292.2,320.8,292.5,309.7
		L292.5,309.7z M305.3,307.9c0.2,2.1,0.2,2.7,1.1,4.4l2.4,3.2c1.9,3.2,0.6,5.5-0.7,8l-6.4-2c-0.9-3.4-1.1-7.4-1.9-10.9
		C302.6,310,303.4,309.2,305.3,307.9L305.3,307.9z M292.5,309.7l-0.9-0.9L292.5,309.7L292.5,309.7z M291.5,308.8
		c-7.8,2.1-1.7,5.5-15.6,5.5c1.6-5.8,10.3-3.8,11.9-10.1C290.6,306.2,289.1,306.5,291.5,308.8L291.5,308.8z M306.3,306.9l-0.9,0.9
		L306.3,306.9L306.3,306.9z M306.3,306.9c0.5-2.2,0.9-2.7,0.9-5.5c5.3,0,7.1-0.6,11-0.9c1.2,4.5,1.6,1.1,2.8,5.5
		c-1.4,1.9-4.1,3.4-6.6,3.5C308.6,309.7,313.6,307.1,306.3,306.9L306.3,306.9z M294.3,304.2c0.4-5.3,3.4-4.6,7.4-3.7
		C301.1,306.7,299.2,304.3,294.3,304.2L294.3,304.2z M274.1,295.9c7.2,0,4-0.2,10.1,1.9c3.9,1.4,4.3,0,4.6,4.6
		C281.6,300.7,274.4,308.4,274.1,295.9L274.1,295.9z M306.3,295.9L306.3,295.9L306.3,295.9z M307.2,295l-0.9,0.9L307.2,295
		L307.2,295z M307.2,295l5.4-8.3c2.4-2.7-0.8-1.4,3.8-1.8C315.9,290.4,311.9,293.9,307.2,295L307.2,295z M280.5,284
		c7.1-3.7,7.6,0.5,14.7,11c-2.4,0.6-2.7,0.8-4.6,1.8c-0.6-5.1,1.5,0-5.3-5.7C282.5,288.7,281.1,288.4,280.5,284L280.5,284z
		 M304.4,281.2c0,2.9,1.5,0.8-1.2,6.1c-1.4,2.6-2.2,4.3-2.5,7.7c-2.1-1.5-1.8,0.6-1.8-6.4c0-4.4,0.9-11.6,5.5-12.9V281.2
		L304.4,281.2z M323.7,298.5l-7.9-0.8l4.2-4.4c1.2-4.8,2.3-1.2,1.6-8.4l-2.4-5.5c-4.1,0-5.5-0.5-8.4,0.9
		c-1.4-17.4-16.3-11.1-16.5,1.8c-3.5-2.3-6.5-7.2-13.2-5c-5.2,1.7-8.2,6-5.2,12.3c-3.2,0.7-5,2.1-7.4,3.7c0,7.4,0.2,10.8,4.6,13.8
		c-1.8,2.7-4.9,5.3-2.9,9.2c1.3,2.6,6.4,4.5,10.2,4.6c-3.2,13.6,14.1,15,16.5,4.6c6.3,1.7-1.2,2.8,14.7,2.8
		c3.6-4.1,2.5-1.9,2.8-12.9C325.5,314.3,329.6,308.6,323.7,298.5L323.7,298.5z"/>
	<path class="st0" d="M430.3,143.4c0.2-2.3,0.8-4.5,1.5-6.8c0.9-3.2,0.9-4.5,3.1-6.1C434.9,137.2,434.4,140.7,430.3,143.4
		L430.3,143.4z M442.3,127.8c0,6.1,0.1,3.6,2.8,7.3c6.6,9-3.1,9.9-4.9,3.3c0-0.1-0.7-6.9-0.7-8.8L442.3,127.8L442.3,127.8z
		 M426.6,126.8c1.7,1.1,3.1,2.4,4.6,3.7c-5.9,0.1-3,1.4-9.2,0l4.1-3.3C426.2,127.1,426.5,127,426.6,126.8L426.6,126.8z M438.6,117.6
		c0,5.3,0.4,10.7-7.4,5.5C431.6,118.2,434.4,116.8,438.6,117.6L438.6,117.6z M425.7,122.2c-4.7,0-11.7-2.8-12.9-7.4
		c3.9-1,1.6-1.8,4.6-1.8c5.4,0,0.5,1.8,11,1.8C426.8,117.4,426,118.2,425.7,122.2L425.7,122.2z M442.3,127.8c3-4.5,2.9-9.5,0-13.8
		c7.6-0.2,4-5.6,13.8-6.4c0.8,3.4,1.6,8-2.2,10.7c-5.4,3.9-8.7-2.8-8.9,5.8c7.3,0,11.8,0.1,11.9,7.4
		C446.3,131.4,449,127.9,442.3,127.8L442.3,127.8z M441.3,113c-4.5-2.4-2.4-2.1-8.7-0.1c-2.6,0.9-0.3,0.4-3.3,1
		c-0.1-3.6,0.3-2.2-0.9-4.6c-5.8,0-6.8-1.1-9.2-4.6c1.7-7.3,7.8-7.4,11.8-0.8c2.3,3.7,1.2,5,5.7,5.4c1.1-2.4,1.8-9.9,1.8-13.8
		C451.5,95.6,441.5,107,441.3,113L441.3,113z M418.7,94.7l-4.9,5.1c0,4.8,0.1,5,0.9,8.7c-4.2,0.3-13.9,5.8-3,15.9
		c1,0.9,3.5,2.7,3.8,3.3c1,1.6-0.9,10,10.2,10.3c-0.7,8.1-2.7,6.1,1.8,12.9c8-0.2,6.8-5,10.1-5c1.8,0.3,3.4,0.6,4.9,1.1
		c0.7,0.2,1.3,0.5,1.9,0.9c1.4,0.9,0.7,0.3,1.6,1.2c6.1-0.5,6.3-4.4,6.3-11c16.3-0.4,8.3-14.2,7.9-15.4c-1.4-4.4,2.1-4.2,2.2-10.4
		c0.2-6.1-1.6-6.9-3.8-10.1c-4.1,0-5.4-0.5-8.3,0.9c0-8.1-0.2-10.5-6.4-13c-5.7-2.2-10.7,0.2-12,5.6
		C427.3,94.4,427.4,92.3,418.7,94.7L418.7,94.7z"/>
	<path class="st0" d="M314.5,158.1c16.7,3.9,4.6,15.1-0.6,6C312.3,161.3,313.4,160.3,314.5,158.1L314.5,158.1z M284.2,153.5
		c7.9-5.3,8.8-3.3,13.3-1.6c5,1.8,1.6,1.4,4.6,4.9l2.1,1.6c0.2,0.1,0.4,0.2,0.6,0.3l5.2,1.3c-1,1.5-1.8,1.4-2.1,3.6
		c-0.6,4.8,2.3,11.1-8,11.1c-1.5-6.4,1.1-8.1,3.7-12.9C295.5,149.9,289,162.6,284.2,153.5L284.2,153.5z M304.4,151.6
		c0-13,18.4-0.3,3.7,3.7C307.1,154.6,304.4,153.2,304.4,151.6L304.4,151.6z M315.4,138.8c0,1.7-0.1,0.1,0.9,1.8
		c6-0.5,7.3-9.6,11-7.4c6.2,3.7-4.1,6.8-4.6,12.9c3.1,2.6,13.2-2.8,8.3,4.5c-2.2,3.4-8.6,3.8-12.9,3.8c0-9.1-1.1-12.9-10.1-12.9
		c-5.8,0-6,4.1-9.2,6.4c-1.4-3.8-1.7-1.1-4.6-5.5c3.3-14,9.2-4.1,14.7-3.7c0-11.2-0.4-13.1,6.4-14.7
		C319.7,132.1,315.4,130.1,315.4,138.8L315.4,138.8z M323.4,172.8c3.7-2.8,3.7-3.4,5-8.3c-0.1-2.8-0.5-3.4-1-5.5
		c2.2-0.5,3.8-1,5.7-1.8c3.8-5.1,4.5-0.5,4.8-10.1c-0.9-3.6-1.7-4.6-5-5.5c1.9-3.9,0.9-9,0-12.9l-10.1-1.1
		c-1.4-5.7-2.1-8.6-10.1-8.2c-3.4,0.2-4.9,1-6.5,2.8c-2,2.3-1.8,3.9-1.8,8.3c-13-3-14.7,4.5-14.7,13.8c-2.8,1.3-5.7,1.8-8.1,3.9
		c-8.5,7.6,3.6,18.8,14.5,13.6c-0.7,3.2-5.6,13.8,0.9,17.5c3,1.7,13.3,2.6,15.7-7.4C316.7,172,318.1,172.8,323.4,172.8L323.4,172.8z
		"/>
	<path class="st0" d="M184,190.2c1.2-1.6,3-3.1,4.5-3.1c6.5-0.2,8.6,7.6,0.1,9.5C184.5,193.9,185.9,194.4,184,190.2L184,190.2z
		 M173.9,202.2c-6.1,0-9.1-1.3-9.2-7.4c4-0.9,7.2-2.5,8.3-6.4c2.7,0.6,2.8,0.9,6.4,0.9C178,192.3,179.5,202.2,173.9,202.2
		L173.9,202.2z M156.3,184.9c2.3-4.2,2.8-4.9,12.2-5.7c0.5,2.2,1,4.6,1.8,6.4c-1.9,0.9-2.7,0.7-4.8,1.6c-3,1.3-1.1,1.2-4.4,2.1
		L156.3,184.9L156.3,184.9z M173.9,180.1c2.7-4,9.2-5.2,9.2,3.7C174.6,185.8,174.6,181.3,173.9,180.1L173.9,180.1z M186.8,174.6
		c4.6-1.2,3.9-4.6,7.4-4.6c9.1,0,7.4,11.9-5.5,11.9C188.6,177.5,188.3,177.5,186.8,174.6L186.8,174.6z M162.9,170
		c0-2.5,0.4-2.5,0.9-4.6c7.6,0,7.2,3,10.1,7.4C169.5,173.8,162.9,173.9,162.9,170L162.9,170z M174.8,159.9c0-5.8,11-1.8,11,2.8
		c0,9-1.4,4.3-1.8,10.1c-3.2-0.8-3-0.9-7.4-0.9C179.2,166.6,174.8,165,174.8,159.9L174.8,159.9z M190,202.2
		c5.8-6.3,8.8-2.9,9.1-14.7c-0.8-2.8-0.6-1.2,0.5-1.8l0.8-0.9c2.8-6.4,4-2.5,4.1-13.8c-1.3-5.3-2.4-3.6-5.9-6.3c-4,0.3-6,1.4-7.4-1
		c-0.6-8.5-3.3-9.7-10.2-11.9c-7.1-2.3-11.7,0.6-11.9,8.2c-5.8,0-8.9-0.2-10.8,3.9c-2.3,4.7-1.2,8.1,0.7,11.8
		c-11.7,1-10.1,17.5,0,18.4c0,8.7,1.5,11.4,8.8,13.3c8.8,2.2,13.5-0.1,15.1-6.8C185.9,201,187,201.6,190,202.2L190,202.2z"/>
	<path class="st0" d="M181.3,310.6c-3.3,0-3.6-2.2-3.7-5.5c3.4-0.9,1.9-1,4.6-2.8c3,1.6,3.6,0.9,4.6,4.6
		C185.7,308.6,184.1,310.6,181.3,310.6L181.3,310.6z M167.5,304.2c1.9,1,2.2,1.3,4.6,1.8c0,4.6-0.1,4.8-0.9,8.3
		c-5.6,2.7-8.3,1.6-11-3.7c4.3-2.3,6.3-1.9,7.2-5.5C167.4,304.9,167.6,304.5,167.5,304.2L167.5,304.2z M155.5,299.6
		c0-2.5,0.4-2.5,0.9-4.6h6.4c0,6.4-0.3,4.1,1.8,7.4C161.3,302.4,155.5,304.7,155.5,299.6L155.5,299.6z M167.5,295
		c15.3-10.2,10.9,12.5,2,3.5C167.1,296.2,168.3,296.6,167.5,295L167.5,295z M182.2,290.4h8.3v3.7c0,2.1-0.6,2.8-2.8,2.8h-4.6
		C183,293.7,182.6,293.2,182.2,290.4L182.2,290.4z M177.6,287.6c5.8-8.6,3.7-8.8,8.3-9.2c0,4.1,0.5,4.1-2.1,6.1
		C182.4,285.6,179.1,287.3,177.6,287.6L177.6,287.6z M173.9,273.9c0,7.7,2.9,11.5-6.6,14.6c-5.4,1.7-11.2,0.1-12.7-5.4
		c8.4-5.8,7.6,3.7,11.9,3.7C174.5,286.7,162,274.1,173.9,273.9L173.9,273.9z M191.4,276.5l-4.4-3.5c-4.4,0-4.2,0.2-7.5,0.9
		c-0.8-9.7-16.3-7.2-16.5,2.8c-7.4-3.5-13.3,2-13.8,6.6c-0.5,4.6,0.4,2.6,1.8,5.5c3,6.4-8.5,12.3,4.6,19.2
		c-4,8.3,7.4,15.9,15.6,12.8c3.9-1.4,3.8-2.1,5.6-5.5c3.4,1.6,9.5,0.7,12.3-1.5c4-3.2,3.7-7,2.4-12.3c2.5-0.7,3.4-1.2,4.3-4
		c2.6-9-2.6-11.6-2.9-12C191.5,283.9,191.4,280.6,191.4,276.5L191.4,276.5z"/>
	<path class="st0" d="M302.6,76.3c0-2.1,0.3-1.1,0.9-3.7c8.3,0,6.7,3.1,5.5,8.3C305.5,80.6,302.6,80.2,302.6,76.3L302.6,76.3z
		 M288.8,71.7c0-5,2.3-4.7,5.5-6.4c0.6,7.4,2.2,2,3.7,7.4C295.6,73.8,288.8,76.1,288.8,71.7L288.8,71.7z M318.2,64.3
		c4.7,1.1,7.2,1.6,7.4,7.4c-8.2,0.7-4.3,4.2-11.9-0.9C315.2,67.7,315.8,66.6,318.2,64.3L318.2,64.3z M307.9,67
		c-2.1,0-6.5-0.9-8.1-1.7c0.4-4.3,2.7-5.6,6.4-6.4l4.8,4.4L307.9,67L307.9,67z M295.2,60.7c-6.7,0-8.7-1-9.2-7.4
		c10.8-2.5,10.8,0.1,13.8,0.9C297.8,57.2,296.2,57.1,295.2,60.7L295.2,60.7z M315.4,59.7c-1.6-3.1-0.1-1.7-2.8-3.7
		c3.4-5.1,3.1-9.6,11.9-3.7c-1,2.1-0.9,3.8-3,5.3C319,59.7,318.6,58.2,315.4,59.7L315.4,59.7z M300.7,46.9l3.7-3.7
		c2.8,0.7,3.5,1.4,5.5,2.8c-0.3,3.5-0.9,3.6-0.9,8.3c-3.1-0.7-3.4-1.5-6.4,0L300.7,46.9L300.7,46.9z M285.1,77.3
		c5,1.8,4.1,2.6,11,2.3c0.8-0.9,0.3-0.7,0.9,0.2c4.6,4.1,8.4,5,16.5,4c1.3-2.3,1.6-3.4,2.8-5.7c6.1,0,11.7,0.5,13.9-3.6
		c2.6-4.9,1-9.8-3.8-12.9c4.6-6.8,6.4-13.6-3.6-16.6c-1.8-0.5-2.9-0.7-5.1-1.4c-4.5-1.3-1.7,0.3-4.9-2.5c-8.1-7.2-15.2-4.9-17.7,5.7
		c-6.3-3-10.5,0.9-14.7,3.7c0,15.4,4.9,9.7,3.8,15.7C283.6,69.8,281.7,70.4,285.1,77.3L285.1,77.3z"/>
	<path class="st0" d="M372.4,191.2c4.4,0,5.5-0.5,5.5,3.7c0,3.9-1.5,5.6-4.6,6.4C366.2,196.5,374.6,196.5,372.4,191.2L372.4,191.2z
		 M365.1,194.8c-3.4-0.1-5.5-0.3-5.2-3.4c0.3-3.5,2.9-3.7,5.2-4.9C368.1,192.2,365.6,188.4,365.1,194.8L365.1,194.8z M381.6,185.6
		l2.8,2.8c2.2-0.6,10.3-6.3,7.4,6.4C385.4,194.7,381.8,192,381.6,185.6L381.6,185.6z M373.3,185.6h-2.8c0-5.8,0.8-5.5,6.4-5.5
		C376.9,183.5,376.6,185.6,373.3,185.6L373.3,185.6z M382.5,183.8c0-9.7-2.7-13.6,8.3-11C392.6,179.5,390.1,178.8,382.5,183.8
		L382.5,183.8z M360.5,182c-2-3-2.4-1.3-2.8-5.5c4-1.9,5.2-1.9,9.2,0C364.4,181.1,366.3,180.6,360.5,182L360.5,182z M366.9,168.2
		c4.7-8.9,7.7-2.7,11-1.8c0,3.8-0.6,5.8-1.8,8.3h-5.5C370.2,170.2,369.1,171.4,366.9,168.2L366.9,168.2z M360.5,170
		c-5.3,0.1-8.3,2.6-8.3,8.3c0,5.7,3.5,4.2,3.1,8.8c-0.4,4-2.3,6.2,0.8,10.3c3.4,4.5,6,0.8,10.3,5.3c0.9,1,0.4,0.9,1.7,2
		c3.7,3.1,8.7,2.5,12-0.4c2.8-2.4,1.9-2.8,3.4-5.8c5.5,2.6,14.7,2.7,14.7-5.5c0-10.1-1.3-6.1-2.3-9.7c-0.7-2.8,5.3-11.6-3.4-16
		c-2.9-1.5-6.2-2.4-9.1-1C380.8,155.1,361.8,154.1,360.5,170L360.5,170z"/>
	<path class="st0" d="M301.7,382.3c4.7,0,4.7-0.6,8.3-0.9c0.2,3,0.3,3.4,3,5.3l1.1,0.7c0.1,0.1,0.4,0.2,0.5,0.4
		C304.8,388,307.2,394.8,301.7,382.3L301.7,382.3z M313.6,379.5c0-3.5,5.6-3.7,9.2-3.7c0,5.7,0.5,5.5-3.7,8.3
		C316.5,383.5,313.6,382.7,313.6,379.5L313.6,379.5z M299.8,373.1c0-3.3,2.8-3.6,4.6-2.8c3,1.4,1.4,2.5,6.5,3.7
		c-1.1,2.1-1.6,2.4-1.8,5.5C305.8,376.1,299.8,378.6,299.8,373.1L299.8,373.1z M332,374.9c2.9,0,2-2.3,7.4-2.8
		c4,7.6-2.9,9.2-9.2,9.2c0,10.8,5.4,2.5,2.8,13.8c-2.1,0.5-2.1,0.7-4.6,0.9c-3.6-5.4-0.1-3.8-3.7-6.4c-6.6,1.8-1.1,3.7-5.5,11.9
		c-4.7-1.1-5.4-2.7-7.4-6.4c2.5-3.7,3.6-1.8,3.7-7.4c8.6,2.1,11.9-1.2,11.9-11.9c0-3.8-0.9-5.2-4.6-5.5c1.3-5.7,2.4-10.6,8.3-11.9
		c0.2,0.1,0.4,0.1,0.5,0.4c0.2,0.8,3.2,0.6,3.2,7c0,3.2-2.3,2.9-3.9,4.5C328.8,372.2,328,374.9,332,374.9L332,374.9z M317.3,372.2
		c-3.7,0-3-0.3-5.5,0.9c-0.2-7-2.2-2.7-3.7-8.3c2.9-4.3,7.4-5.2,11.9-2.8C319.2,365.7,318.1,368.8,317.3,372.2L317.3,372.2z
		 M310.8,356.6l-1.7,1c-10.4,5.9-0.9,4.2-9.2,8.2c-2.3,1.1-2.6,1.3-4.7,2.7c0,14,2.2,3.7,2.8,15.6c0.5,10.6,6.6,6.2,9.7,13.3
		c5.1,12,15.7,10.6,17.9,2.3c4.3,2,8.3,0.9,10.9-2c3.6-4.2,1.5-6.8,1.1-11.8c11.3-6,8.8-17.8,1.8-18.4c0-7.9-1-8.4-4.6-12.5
		c-3.5-1.2-2.3-1.1-6.4-1c-3.6,1.3-2.6,1.5-5.5,3.4c-2-0.5-4.2-1.4-5.6-1.5C315.3,355.9,314.2,356.6,310.8,356.6L310.8,356.6z"/>
	<path class="st0" d="M413.8,99.8l4.9-5.1c-3.7-2.8-5.4-6-8.8-8.9c-2.7-2.3-8.5-5.5-12.7-5.8c-8.2-0.7-6.7,3.8-15.5,2.8
		c-6.8-0.8-7.4-5.2-12.1-6.4c1.4,17.3,21.7,9.6,27.4,10.2c5.4,0.5,6.1,1.8,9.3,4.5c-6.2,0-4.3,0.2-8.4,1.8c-4.1,1.5-4,0.1-9,0.1
		c0.4,4.2,0.7,2.5,2.8,5.5c15.7,0,11.3-6.2,20,0.2C413.8,100,412.1,99.1,413.8,99.8L413.8,99.8z"/>
</g>
</svg>
