<?xml version="1.0" encoding="utf-8"?>
<!-- Generator: Adobe Illustrator 27.8.0, SVG Export Plug-In . SVG Version: 6.00 Build 0)  -->
<svg version="1.1" id="Layer_1" xmlns="http://www.w3.org/2000/svg" xmlns:xlink="http://www.w3.org/1999/xlink" x="0px" y="0px"
	 viewBox="0 0 1076.6 197.8" style="enable-background:new 0 0 1076.6 197.8;" xml:space="preserve">
<style type="text/css">
	.st0{fill:#48484A;}
</style>
<g>
	<path d="M102.8,72.1c-0.1,0-0.2,0-0.3-0.1c-0.4-0.2-10.1-3.9-13.9-13.6C86.1,51.7,87,44,91.4,35.3c0.2-0.3,0.4-0.5,0.8-0.5
		c0.1,0,7.4,0.5,10.6,8.3c1.2-2.8,4.1-7,10.5-8.2c0.4-0.1,0.7,0.1,0.9,0.4c4.4,8.6,5.3,16.4,2.7,23.1c-3.7,9.7-13.4,13.5-13.8,13.6
		C103,72.1,102.9,72.1,102.8,72.1z M92.6,36.6c-3.9,8-4.8,15.1-2.4,21.2c3.1,8.1,11,11.9,12.6,12.6c1.6-0.7,9.5-4.5,12.6-12.6
		c2.3-6.1,1.5-13.2-2.4-21.1c-8,1.9-9.3,8.9-9.4,9.2c-0.1,0.4-0.4,0.7-0.8,0.7c-0.4,0-0.7-0.2-0.8-0.6C100,38.4,94.4,36.9,92.6,36.6
		z M113.5,160.2c-0.1,0-0.1,0-0.2,0c-6.4-1.3-9.3-5.5-10.5-8.2c-3.2,7.7-10.5,8.2-10.6,8.3c-0.4,0.1-0.6-0.2-0.8-0.5
		c-4.4-8.6-5.3-16.4-2.7-23.1c3.7-9.7,13.4-13.5,13.9-13.6c0.2-0.1,0.4-0.1,0.6,0c0.4,0.2,10.1,3.9,13.8,13.6
		c2.6,6.7,1.7,14.4-2.7,23.1C114.1,160,113.8,160.2,113.5,160.2z M102.8,124.7c-1.6,0.7-9.5,4.5-12.6,12.6
		c-2.3,6.1-1.5,13.2,2.4,21.2c1.8-0.3,7.5-1.8,9.4-9.4c0.1-0.4,0.5-0.6,0.8-0.6c0.4,0,0.7,0.3,0.8,0.7c0.1,0.3,1.4,7.3,9.4,9.2
		c3.9-8,4.7-15.1,2.4-21.1C112.3,129.2,104.4,125.4,102.8,124.7z M149.7,113.1c-2.7,0-5.4-0.5-7.8-1.4c-9.7-3.7-13.5-13.4-13.6-13.8
		c-0.1-0.2-0.1-0.4,0-0.6c0.2-0.4,3.9-10.1,13.6-13.9c6.7-2.6,14.4-1.7,23.1,2.7c0.3,0.1,0.5,0.5,0.5,0.8c0,0.1-0.5,7.4-8.3,10.6
		c2.8,1.2,7,4.1,8.2,10.5c0.1,0.4-0.1,0.7-0.4,0.9C159.5,111.7,154.4,113.1,149.7,113.1z M130,97.5c0.7,1.6,4.5,9.5,12.6,12.6
		c6.1,2.3,13.2,1.5,21.1-2.4c-1.9-8-8.9-9.3-9.3-9.4c-0.4-0.1-0.7-0.4-0.7-0.8c0-0.4,0.2-0.7,0.6-0.8c7.5-1.9,9.1-7.6,9.4-9.4
		c-8-3.9-15.1-4.7-21.2-2.4C134.5,88,130.7,95.9,130,97.5z M55.8,113.1c-4.7,0-9.8-1.4-15.2-4.2c-0.3-0.2-0.5-0.5-0.4-0.9
		c1.3-6.4,5.5-9.3,8.2-10.5c-7.7-3.2-8.3-10.5-8.3-10.6c0-0.3,0.2-0.6,0.5-0.8c8.6-4.4,16.4-5.3,23.1-2.7
		c9.7,3.7,13.5,13.4,13.6,13.9c0.1,0.2,0.1,0.4,0,0.6c-0.2,0.4-3.9,10.1-13.6,13.8C61.2,112.6,58.6,113.1,55.8,113.1z M41.9,107.7
		c8,3.9,15.1,4.7,21.1,2.4c8.1-3.1,11.9-11,12.6-12.6C74.9,95.9,71.1,88,63,84.9c-6.1-2.3-13.2-1.5-21.2,2.4
		c0.3,1.8,1.8,7.5,9.4,9.4c0.4,0.1,0.6,0.4,0.6,0.8c0,0.4-0.3,0.7-0.7,0.8C50.9,98.4,43.8,99.7,41.9,107.7z M73.9,82
		c-2.8,0-5.9-0.5-8.9-1.8c-6.6-2.8-11.4-8.9-14.5-18.1c-0.1-0.3,0-0.7,0.2-0.9c0.1-0.1,5.6-4.9,13.3-1.8c-1.1-2.8-2.1-7.8,1.5-13.3
		c0.2-0.3,0.6-0.4,0.9-0.3c9.2,2.9,15.4,7.7,18.4,14.2c4.3,9.5,0.2,19,0,19.4c-0.1,0.2-0.2,0.3-0.4,0.4C84.1,80,79.7,82,73.9,82z
		 M52.2,62.1c2.9,8.4,7.4,14,13.4,16.6c7.9,3.5,16.2,0.5,17.8-0.2c0.6-1.7,3.5-9.9-0.1-17.8c-2.7-5.9-8.3-10.3-16.7-13.1
		c-4.3,7.1,0,13.1,0,13.2c0.2,0.3,0.2,0.8-0.1,1c-0.3,0.3-0.7,0.4-1,0.2C58.7,58,53.6,61,52.2,62.1z M139.4,149.3
		c-0.1,0-0.2,0-0.3,0c-9.2-2.9-15.4-7.7-18.4-14.2c-4.3-9.5-0.2-19,0-19.4c0.1-0.2,0.2-0.3,0.4-0.4c0.4-0.2,9.9-4.4,19.4-0.3
		c6.6,2.8,11.4,8.9,14.5,18.1c0.1,0.4,0,0.7-0.3,0.9c-5.4,3.7-10.4,2.8-13.2,1.7c3.3,7.7-1.5,13.3-1.6,13.4
		C139.8,149.2,139.6,149.3,139.4,149.3z M122.2,116.6c-0.6,1.7-3.5,9.9,0.1,17.8c2.7,5.9,8.3,10.3,16.8,13.1c1-1.5,4-6.6-0.1-13.3
		c-0.2-0.3-0.1-0.8,0.1-1c0.3-0.3,0.7-0.3,1-0.1c0.3,0.2,6.2,4.2,13.2-0.2c-2.9-8.4-7.4-13.9-13.4-16.5
		C132,113,123.8,115.9,122.2,116.6z M131,81.5c-5.6,0-9.8-1.8-10.1-1.9c-0.2-0.1-0.3-0.2-0.4-0.4c-0.2-0.4-4.4-9.9-0.3-19.4
		c2.8-6.6,8.9-11.4,18.1-14.5c0.3-0.1,0.7,0,0.9,0.2c0.1,0.1,4.9,5.6,1.8,13.3c2.8-1.1,7.8-2.1,13.3,1.5c0.3,0.2,0.4,0.6,0.3,0.9
		c-2.9,9.2-7.7,15.4-14.2,18.4C137.1,81,133.9,81.5,131,81.5z M121.8,78.1c1.7,0.6,9.9,3.5,17.8-0.1c5.9-2.7,10.3-8.3,13.1-16.7
		c-7.1-4.3-12.9-0.2-13.2,0c-0.3,0.2-0.8,0.2-1-0.1c-0.3-0.3-0.4-0.7-0.2-1c4-6.8,1-11.8-0.1-13.3c-8.4,2.9-14,7.4-16.6,13.4
		C118.2,68.3,121.2,76.5,121.8,78.1z M67,149.9c-0.3,0-0.5-0.1-0.7-0.4c-3.7-5.4-2.8-10.4-1.7-13.2c-7.7,3.3-13.3-1.5-13.4-1.6
		c-0.2-0.2-0.3-0.6-0.2-0.9c2.9-9.2,7.7-15.4,14.2-18.4c9.5-4.3,19-0.2,19.4,0c0.2,0.1,0.3,0.2,0.4,0.4c0.2,0.4,4.4,9.9,0.3,19.4
		c-2.8,6.6-8.9,11.4-18.1,14.5C67.2,149.9,67.1,149.9,67,149.9z M66.5,133.6c0.2,0,0.4,0.1,0.6,0.3c0.3,0.3,0.3,0.7,0.1,1
		c-0.2,0.3-4.2,6.2,0.2,13.2c8.4-2.9,13.9-7.4,16.5-13.4c3.5-8,0.5-16.2-0.2-17.8c-1.7-0.6-9.9-3.5-17.8,0.1
		c-5.9,2.7-10.3,8.3-13.1,16.8c1.5,1,6.6,4,13.3-0.1C66.2,133.6,66.3,133.6,66.5,133.6z M103,104.2c-4,0-7.2-3.2-7.2-7.2
		c0-4,3.2-7.2,7.2-7.2s7.2,3.2,7.2,7.2C110.2,101,106.9,104.2,103,104.2z M103,91.5c-3.1,0-5.5,2.5-5.5,5.5c0,3.1,2.5,5.5,5.5,5.5
		s5.5-2.5,5.5-5.5C108.5,93.9,106,91.5,103,91.5z M105.8,81.6c0-1.6-1.3-2.9-2.9-2.9s-2.9,1.3-2.9,2.9c0,1.6,1.3,2.9,2.9,2.9
		S105.8,83.2,105.8,81.6z M105.8,112.4c0-1.6-1.3-2.9-2.9-2.9s-2.9,1.3-2.9,2.9c0,1.6,1.3,2.9,2.9,2.9S105.8,113.9,105.8,112.4z
		 M118.3,99.9c1.6,0,2.9-1.3,2.9-2.9c0-1.6-1.3-2.9-2.9-2.9c-1.6,0-2.9,1.3-2.9,2.9C115.5,98.6,116.8,99.9,118.3,99.9z M87.6,99.9
		c1.6,0,2.9-1.3,2.9-2.9c0-1.6-1.3-2.9-2.9-2.9s-2.9,1.3-2.9,2.9C84.8,98.6,86,99.9,87.6,99.9z M94.1,84.2c-1.1-1.1-2.9-1.1-4,0
		c-1.1,1.1-1.1,2.9,0,4c1.1,1.1,2.9,1.1,4,0C95.2,87.1,95.2,85.3,94.1,84.2z M115.9,105.8c-1.1-1.1-2.9-1.1-4,0
		c-1.1,1.1-1.1,2.9,0,4c1.1,1.1,2.9,1.1,4,0C117,108.7,117,106.9,115.9,105.8z M115.8,88.1c1.1-1.1,1.1-2.9,0-4
		c-1.1-1.1-2.9-1.1-4,0c-1.1,1.1-1.1,2.9,0,4C112.9,89.2,114.7,89.2,115.8,88.1z M94.2,109.9c1.1-1.1,1.1-2.9,0-4
		c-1.1-1.1-2.9-1.1-4,0c-1.1,1.1-1.1,2.9,0,4C91.3,111,93.1,111,94.2,109.9z M103,31l-0.6-0.6c-0.1-0.1-13.3-13.4-0.1-30.5l0.7-0.9
		l0.7,0.8c0.1,0.2,12.6,16.4,0,30.5L103,31z M102.9,1.8c-9.8,13.6-2.3,24.1,0.1,26.7C112.2,17.4,105.2,5.2,102.9,1.8z M103.5,15.1
		c0-4.9-0.1-9.8-0.6-14.7c-0.4,4.9-0.5,9.8-0.5,14.7c0,4.9,0.1,9.8,0.6,14.7C103.4,24.9,103.5,20,103.5,15.1z M121,33.1l-0.3-0.8
		c-0.1-0.2-5.5-18,14.1-27l1-0.4l0.2,1.1c0,0.2,3.4,20.4-14.2,26.9L121,33.1z M134.6,7.2c-15,7.5-13.2,20.2-12.5,23.7
		C135.5,25.3,135,11.3,134.6,7.2z M128.9,19.2c2.3-4.3,4.5-8.7,6.4-13.3c-2.7,4.1-5,8.4-7.3,12.8c-2.3,4.3-4.5,8.7-6.4,13.3
		C124.2,27.8,126.6,23.6,128.9,19.2z M85.3,33.2l-1-0.4c-19.6-9-14.2-26.9-14.1-27l0.3-0.8l0.8,0.3c17.6,6.5,14.3,26.7,14.2,26.9
		L85.3,33.2z M71.6,7.1C70.8,10.5,69,23.3,84,30.7C84.5,26.7,84.9,12.6,71.6,7.1z M77.4,19.2c2.3,4.3,4.7,8.6,7.3,12.8
		c-1.9-4.5-4.1-8.9-6.4-13.3C76,14.4,73.7,10.1,71,6C72.9,10.5,75.1,14.9,77.4,19.2z M102.9,196.8l-0.7-0.9
		c-13.1-17.1,0-30.4,0.1-30.5l0.6-0.6l0.6,0.6c12.5,14,0.1,30.3,0,30.5L102.9,196.8z M103,167.3c-2.3,2.7-9.8,13.2-0.1,26.7
		C105.2,190.6,112.2,178.4,103,167.3z M102.4,180.7c0,4.9,0.1,9.8,0.5,14.7c0.4-4.9,0.6-9.8,0.6-14.7c0-4.9-0.1-9.8-0.5-14.7
		C102.5,170.9,102.4,175.8,102.4,180.7z M135.9,191l-1-0.4c-19.6-9-14.2-26.9-14.1-27l0.3-0.8l0.8,0.3c17.6,6.5,14.3,26.7,14.2,26.9
		L135.9,191z M122.1,164.9c-0.8,3.5-2.5,16.2,12.5,23.7C135,184.5,135.5,170.5,122.1,164.9z M127.9,177.1c2.3,4.3,4.7,8.6,7.3,12.8
		c-1.9-4.5-4.1-8.9-6.4-13.3c-2.3-4.3-4.7-8.6-7.3-12.8C123.4,168.3,125.6,172.7,127.9,177.1z M70.5,190.9l-0.3-0.8
		c-0.1-0.2-5.5-18,14.1-27l1-0.4l0.2,1.1c0,0.2,3.4,20.4-14.2,26.9L70.5,190.9z M84,165.1c-15,7.5-13.2,20.2-12.4,23.7
		C84.7,183.2,84.4,169.1,84,165.1z M78.3,177.1c2.3-4.3,4.5-8.7,6.4-13.3c-2.7,4.1-5,8.4-7.3,12.8c-2.3,4.3-4.5,8.7-6.4,13.3
		C73.7,185.7,76,181.4,78.3,177.1z M184.6,104.2c-4.5,0-9.4-1.4-14.1-5.6l-0.6-0.6l0.6-0.6c0.1-0.1,13.4-13.3,30.5-0.1l0.9,0.7
		l-0.8,0.7C200.8,98.6,193.6,104.2,184.6,104.2z M172.3,98c11.1,9.2,23.3,2.2,26.7-0.1C185.6,88.3,175,95.7,172.3,98z M185.7,98.5
		c4.9,0,9.8-0.1,14.7-0.6c-4.9-0.4-9.8-0.5-14.7-0.5c-4.9,0-9.8,0.1-14.7,0.6C175.9,98.4,180.8,98.5,185.7,98.5z M190.9,131.3
		c-6.3,0-18.1-1.8-22.8-14.5l-0.3-0.8l0.8-0.3c0.2-0.1,18-5.5,27,14.1l0.4,1L195,131C194.9,131.1,193.3,131.3,190.9,131.3z
		 M169.9,117.1c5.5,13.4,19.6,12.9,23.7,12.5C186.1,114.6,173.4,116.3,169.9,117.1z M181.6,123.9c4.3,2.3,8.7,4.5,13.3,6.4
		c-4.1-2.7-8.4-5-12.8-7.3c-4.3-2.3-8.7-4.5-13.3-6.4C172.9,119.2,177.2,121.6,181.6,123.9z M172.8,80.8c-2.4,0-4.1-0.3-4.1-0.3
		l-1.1-0.2l0.4-1c9-19.6,26.9-14.2,27-14.1l0.8,0.3l-0.3,0.8C190.9,79,179.1,80.8,172.8,80.8z M170.1,79c4.1,0.4,18.1,0.9,23.7-12.5
		C190.3,65.8,177.5,64,170.1,79z M181.6,72.4c-4.3,2.3-8.6,4.7-12.8,7.3c4.5-1.9,8.9-4.1,13.3-6.4c4.3-2.3,8.6-4.7,12.8-7.3
		C190.3,67.9,185.9,70.1,181.6,72.4z M21.2,104.2c-9,0-16.2-5.5-16.3-5.6L4,97.9l0.9-0.7c17.1-13.1,30.4,0,30.5,0.1L36,98l-0.6,0.6
		C30.6,102.8,25.7,104.2,21.2,104.2z M6.8,97.9c3.4,2.3,15.6,9.3,26.7,0.1C30.8,95.6,20.4,88.1,6.8,97.9z M20.1,97.4
		c-4.9,0-9.8,0.1-14.7,0.5c4.9,0.4,9.8,0.6,14.7,0.6c4.9,0,9.8-0.1,14.7-0.5C29.9,97.5,25,97.4,20.1,97.4z M14.9,131.3
		c-2.4,0-4.1-0.3-4.1-0.3l-1.1-0.2l0.4-1c9-19.6,26.9-14.2,27-14.1l0.8,0.3l-0.3,0.8C33.1,129.5,21.2,131.3,14.9,131.3z M12.2,129.6
		c4.1,0.4,18.1,0.9,23.7-12.5C32.4,116.3,19.7,114.6,12.2,129.6z M23.7,122.9c-4.3,2.3-8.6,4.7-12.8,7.3c4.5-1.9,8.9-4.1,13.3-6.4
		c4.3-2.3,8.6-4.7,12.8-7.3C32.4,118.4,28.1,120.6,23.7,122.9z M33,80.8c-6.3,0-18.1-1.8-22.8-14.5l-0.3-0.8l0.8-0.3
		c0.2-0.1,18-5.5,27,14.1l0.4,1l-1.1,0.2C37.1,80.5,35.5,80.8,33,80.8z M12.1,66.6C17.6,79.9,31.7,79.5,35.7,79
		C28.3,64,15.5,65.8,12.1,66.6z M23.7,73.3c4.3,2.3,8.7,4.5,13.3,6.4c-4.1-2.7-8.4-5-12.8-7.3c-4.3-2.3-8.7-4.5-13.3-6.4
		C15.1,68.7,19.4,71,23.7,73.3z M47.5,39.5c-0.9-0.9-2.3-0.9-3.2,0c-0.9,0.9-0.9,2.3,0,3.2c0.9,0.9,2.3,0.9,3.2,0
		C48.4,41.8,48.4,40.4,47.5,39.5z M46,43.9c-0.7,0-1.4-0.3-2-0.8c-1.1-1.1-1.1-2.9,0-4c0.5-0.5,1.2-0.8,2-0.8c0.8,0,1.5,0.3,2,0.8
		c0.5,0.5,0.8,1.2,0.8,2c0,0.7-0.3,1.5-0.8,2C47.4,43.6,46.7,43.9,46,43.9z M46,39.4C46,39.4,45.9,39.4,46,39.4
		c-0.5,0-0.9,0.2-1.2,0.5c-0.7,0.7-0.6,1.8,0,2.4c0.7,0.7,1.8,0.7,2.4,0c0.3-0.3,0.5-0.8,0.5-1.2c0-0.5-0.2-0.9-0.5-1.2h0
		C46.8,39.6,46.4,39.4,46,39.4z M161.9,151.7c-0.9-0.9-2.3-0.9-3.2,0c-0.9,0.9-0.9,2.3,0,3.2c0.9,0.9,2.3,0.9,3.2,0
		C162.8,154,162.8,152.5,161.9,151.7z M160.3,156.1c-0.7,0-1.4-0.3-2-0.8c-1.1-1.1-1.1-2.9,0-4c1.1-1.1,2.9-1.1,4,0h0
		c1.1,1.1,1.1,2.9,0,4C161.8,155.8,161,156.1,160.3,156.1z M160.3,151.6c-0.4,0-0.9,0.2-1.2,0.5c-0.7,0.7-0.6,1.8,0,2.4
		c0.7,0.7,1.8,0.6,2.4,0c0.7-0.7,0.6-1.8,0-2.4l0,0C161.2,151.7,160.7,151.6,160.3,151.6z M45.4,152.8c-0.9,0.9-0.9,2.3,0,3.2
		c0.9,0.9,2.3,0.9,3.2,0c0.9-0.9,0.9-2.3,0-3.2C47.7,151.9,46.3,151.9,45.4,152.8z M47,157.2c-0.7,0-1.4-0.3-2-0.8
		c-0.5-0.5-0.8-1.2-0.8-2c0-0.8,0.3-1.5,0.8-2c0.5-0.5,1.2-0.8,2-0.8c0,0,0,0,0,0c0.7,0,1.4,0.3,2,0.8c0.5,0.5,0.8,1.2,0.8,2
		c0,0.7-0.3,1.5-0.8,2C48.5,156.9,47.8,157.2,47,157.2C47.1,157.2,47.1,157.2,47,157.2z M47.1,152.7C47,152.7,47,152.7,47.1,152.7
		c-0.5,0-0.9,0.2-1.2,0.5h0c-0.3,0.3-0.5,0.8-0.5,1.2c0,0.5,0.2,0.9,0.5,1.2c0.3,0.3,0.7,0.5,1.2,0.5c0.5,0,0.9-0.2,1.2-0.5
		c0.3-0.3,0.5-0.8,0.5-1.2c0-0.5-0.2-0.9-0.5-1.2C47.9,152.8,47.5,152.7,47.1,152.7z M157.6,38.4c-0.9,0.9-0.9,2.3,0,3.2
		c0.9,0.9,2.3,0.9,3.2,0c0.9-0.9,0.9-2.3,0-3.2C159.9,37.5,158.5,37.6,157.6,38.4z M159.2,42.8c-0.7,0-1.4-0.3-2-0.8
		c-1.1-1.1-1.1-2.9,0-4h0c1.1-1.1,2.9-1.1,4,0c1.1,1.1,1.1,2.9,0,4C160.7,42.6,160,42.8,159.2,42.8z M158,38.8
		c-0.7,0.7-0.6,1.8,0,2.4c0.7,0.7,1.8,0.6,2.4,0c0.7-0.7,0.6-1.8,0-2.4C159.7,38.1,158.7,38.2,158,38.8L158,38.8z M103.3,61.5
		c0-3.2-0.1-6.5-0.6-9.7c-0.4,3.2-0.5,6.5-0.6,9.7c0,3.2,0.1,6.5,0.6,9.7C103.2,68,103.3,64.8,103.3,61.5z M103.3,133.6
		c0-3.2-0.1-6.5-0.6-9.7c-0.4,3.2-0.5,6.5-0.6,9.7c0,3.2,0.1,6.5,0.6,9.7C103.2,140.1,103.3,136.8,103.3,133.6z M66.7,97
		c-3.2,0-6.5,0.1-9.7,0.6c3.2,0.4,6.5,0.5,9.7,0.6c3.2,0,6.5-0.1,9.7-0.6C73.2,97.1,70,97,66.7,97z M138.8,97
		c-3.2,0-6.5,0.1-9.7,0.6c3.2,0.4,6.5,0.5,9.7,0.6c3.2,0,6.5-0.1,9.7-0.6C145.3,97.1,142.1,97,138.8,97z M77.3,72
		c-2.3-2.2-4.7-4.4-7.4-6.4c2,2.6,4.3,4.9,6.6,7.2c2.3,2.2,4.7,4.4,7.4,6.4C81.9,76.6,79.6,74.3,77.3,72z M129,122.3
		c-2.3-2.2-4.7-4.4-7.4-6.4c2,2.6,4.3,4.9,6.6,7.2c2.3,2.2,4.7,4.4,7.4,6.4C133.6,126.9,131.3,124.5,129,122.3z M77.3,123
		c-2.2,2.3-4.4,4.7-6.4,7.4c2.6-2,4.9-4.3,7.2-6.6c2.2-2.3,4.4-4.7,6.4-7.4C81.9,118.4,79.5,120.7,77.3,123z M127.5,71.3
		c-2.2,2.3-4.4,4.7-6.4,7.4c2.6-2,4.9-4.3,7.2-6.6c2.2-2.3,4.4-4.7,6.4-7.4C132.1,66.8,129.8,69,127.5,71.3z"/>
	<g>
		<g>
			<path d="M279.2,81.6h-45.6V79c2.4,0,4.3-0.2,5.5-0.6c1.2-0.4,2-1.2,2.3-2.4c0.4-1.2,0.6-2.9,0.6-5.1V35.4c0-2.3-0.2-4-0.6-5.2
				c-0.4-1.2-1.1-2.1-2.3-2.5c-1.2-0.5-3-0.7-5.5-0.7v-2.6h25.8v2.6c-2.5,0-4.3,0.2-5.7,0.7c-1.3,0.5-2.2,1.4-2.7,2.6
				s-0.7,3-0.7,5.2v37.9c0,1.9,0.5,3.2,1.5,3.8c1,0.6,2.8,0.9,5.5,0.9h4.2c3.1,0,5.5-0.2,7.4-0.7c1.9-0.4,3.4-1.2,4.5-2.2
				c1.1-1,2.1-2.4,2.8-4.1c0.8-1.7,1.6-3.8,2.5-6.3h2.9L279.2,81.6z"/>
			<path d="M317.5,82.6c-8.1,0-14.1-1.8-17.8-5.4c-3.7-3.6-5.6-9.4-5.6-17.5V34.6c0-2-0.2-3.6-0.7-4.7c-0.5-1.1-1.4-1.9-2.7-2.3
				c-1.3-0.4-3.2-0.7-5.6-0.7v-2.6h26.5v2.6c-2.6,0-4.5,0.2-5.8,0.7c-1.3,0.4-2.1,1.2-2.6,2.4c-0.4,1.2-0.6,2.9-0.6,5.1v24.7
				c0,3.8,0.5,7,1.6,9.6c1,2.6,2.8,4.6,5.4,5.9c2.5,1.3,6,2,10.3,2c6,0,10.3-1.4,13-4.1c2.7-2.7,4-7.1,4-13v-22c0-3.1-0.2-5.4-0.6-7
				c-0.4-1.6-1.2-2.7-2.4-3.3c-1.2-0.6-3.1-0.9-5.7-0.9v-2.6h22.5v2.6c-2.6,0-4.6,0.3-5.8,0.9c-1.2,0.6-2,1.6-2.3,3.2
				c-0.3,1.5-0.5,3.8-0.5,6.8v21c0,7.9-1.9,13.9-5.7,17.8C332.4,80.7,326.2,82.6,317.5,82.6z"/>
			<path d="M381.6,81.6h-26.5V79c2.8,0,4.8-0.2,6.1-0.7c1.3-0.4,2.1-1.3,2.5-2.5c0.4-1.2,0.6-3.1,0.6-5.6V35.8
				c0-2.3-0.2-4.1-0.5-5.4c-0.3-1.3-1.1-2.2-2.3-2.7c-1.3-0.5-3.4-0.8-6.3-0.8v-2.6h26.5v2.6c-2.9,0-5,0.3-6.2,0.8
				c-1.3,0.5-2.1,1.4-2.3,2.7c-0.3,1.3-0.4,3.1-0.4,5.4v34.4c0,2.5,0.2,4.4,0.6,5.6c0.4,1.3,1.2,2.1,2.5,2.5s3.3,0.7,6,0.7V81.6z"/>
			<path d="M391.4,82.9h-2.8l-0.8-18.8h2.8c1.1,4,2.4,7.1,3.9,9.2c1.5,2.1,3.3,3.6,5.5,4.4c2.2,0.8,4.8,1.2,7.9,1.2
				c2.3,0,4.3-0.3,6-0.9c1.7-0.6,2.9-1.6,3.9-3c0.9-1.4,1.4-3.2,1.4-5.4c0-2.6-0.8-4.7-2.3-6.4c-1.5-1.7-3.4-3.2-5.7-4.5
				c-2.3-1.3-4.7-2.6-7.3-4c-2.5-1.3-4.8-2.8-7.1-4.3c-2.3-1.5-4.1-3.3-5.6-5.4c-1.4-2.1-2.2-4.7-2.2-7.7c0-3.1,0.8-5.7,2.4-7.7
				c1.6-2.1,3.7-3.6,6.3-4.8c2.6-1.1,5.5-1.7,8.7-1.7c2.8,0,5,0.2,6.5,0.7c1.5,0.4,2.7,0.9,3.6,1.4c0.9,0.5,1.7,0.7,2.4,0.7
				c0.7,0,1.3-0.2,1.8-0.6c0.5-0.4,0.8-1,1.1-2h2.4l0.6,17.4h-2.8c-1.3-4.8-3-8.4-5.1-10.7c-2.1-2.3-5.5-3.5-10.2-3.4
				c-3.1,0-5.5,0.7-7.3,2.1c-1.7,1.4-2.6,3.4-2.6,6.2c0,2.2,0.6,4,1.9,5.5c1.3,1.5,3,2.9,5.1,4.1c2.1,1.2,4.3,2.5,6.5,3.8
				c2,1.1,4.1,2.2,6.1,3.3c2.1,1.1,3.9,2.4,5.6,3.8c1.7,1.4,3,3,4,4.9c1,1.9,1.5,4.1,1.5,6.7c0,3.4-0.8,6.2-2.4,8.5
				c-1.6,2.3-3.8,4.1-6.7,5.3c-2.8,1.2-6,1.8-9.6,1.8c-3.2,0-5.8-0.2-7.8-0.7c-2-0.4-3.6-0.9-4.7-1.3c-1.1-0.4-2.1-0.7-2.8-0.7
				c-0.6,0-1.2,0.3-1.7,0.8C391.8,81.3,391.5,82,391.4,82.9z"/>
			<path d="M450.2,81.6h-19.3V79c1.7,0,3.1-0.3,4.1-0.8c1-0.5,2.1-1.6,3-3.2c1-1.6,2.2-4.1,3.7-7.4l19.5-43.8h3.8l21.8,47.4
				c1.3,2.9,2.6,4.9,3.9,6c1.3,1.2,3.1,1.7,5.6,1.7v2.6h-24.7V79c0.9,0,1.9-0.1,2.8-0.2c1-0.1,1.8-0.4,2.5-0.9c0.7-0.5,1-1.2,1-2.2
				c0-0.6-0.1-1.4-0.3-2.2c-0.2-0.8-0.6-1.9-1.2-3.2l-4-8.7l-0.6-1.7l-10.5-25.3h-0.3l-10.8,25.3l-0.6,1.7L445,71.7
				c-0.2,0.7-0.5,1.4-0.7,2.1c-0.2,0.7-0.3,1.4-0.3,2.2c0,1.2,0.5,2,1.5,2.4c1,0.4,2.5,0.6,4.7,0.6V81.6z M473.7,62.5h-25.5l1.4-3.5
				h22.8L473.7,62.5z"/>
			<path d="M551.6,82.6c-9.7,0-17.1-2.6-22-7.7c-4.9-5.1-7.4-12.4-7.4-21.7c0-6.5,1.3-11.9,3.9-16.4c2.6-4.4,6.2-7.8,10.7-10.1
				c4.5-2.3,9.6-3.4,15.4-3.4c3.4,0,6,0.3,8,0.8c2,0.5,3.6,1,4.7,1.6c1.1,0.5,2.1,0.8,2.8,0.8c0.8,0,1.4-0.3,1.8-0.9
				c0.4-0.6,0.9-1.3,1.5-2.3h2.7v20h-3.1c-1-5.8-3.1-10-6.2-12.5c-3.1-2.5-7.1-3.8-12-3.8c-6.5,0-11.5,2.3-15.1,6.8
				c-3.6,4.5-5.4,10.6-5.4,18.4c0,8.9,1.9,15.5,5.7,19.9c3.8,4.4,8.9,6.6,15.5,6.6c2.9,0,5.3-0.4,7.3-1.2c2-0.8,3.9-1.9,5.7-3.1
				v-9.4c0-2.1-0.2-3.7-0.6-4.8c-0.4-1.1-1.1-1.8-2.3-2.2c-1.2-0.4-2.9-0.6-5.2-0.6v-2.8h22.7v2.8c-2.6,0-4.3,0.4-5.1,1.3
				c-0.8,0.8-1.2,2.6-1.2,5.4v12.6c-3.3,1.8-6.6,3.2-10,4.3S556.7,82.6,551.6,82.6z"/>
			<path d="M617.4,82.6c-6.1,0-11.3-1.2-15.7-3.6c-4.4-2.4-7.8-5.8-10.1-10.3c-2.4-4.4-3.5-9.8-3.5-15.9c0-5.9,1.2-11.1,3.5-15.6
				c2.4-4.4,5.7-7.9,10.1-10.4c4.4-2.5,9.6-3.7,15.7-3.7c6.1,0,11.4,1.2,15.7,3.6c4.3,2.4,7.7,5.8,10,10.1c2.3,4.3,3.5,9.4,3.5,15.1
				c0,6.1-1.2,11.4-3.5,16c-2.4,4.6-5.7,8.1-10.1,10.7C628.7,81.4,623.5,82.6,617.4,82.6z M617.5,79c6.6,0,11.4-2.2,14.7-6.7
				c3.2-4.5,4.8-11.1,4.8-19.9c0-5.2-0.8-9.8-2.5-13.6c-1.7-3.8-4-6.7-6.9-8.8c-3-2.1-6.4-3.1-10.4-3.1c-5.9,0-10.7,2.3-14.2,6.8
				c-3.5,4.5-5.2,10.7-5.2,18.7c0,8.2,1.6,14.7,4.9,19.5C605.9,76.6,610.9,79,617.5,79z"/>
			<path d="M708.3,82.3h-3l-38-46.7h-2.6l-1.7-3.4c-1.2-1.5-2.2-2.6-3.1-3.4c-0.9-0.8-1.8-1.3-2.8-1.5c-1-0.3-2.1-0.4-3.5-0.4v-2.6
				h15.6l34,42.1h0.5V38.2c0-2.7-0.2-4.9-0.6-6.5c-0.4-1.6-1.2-2.8-2.4-3.6c-1.2-0.8-3.2-1.1-5.8-1.1v-2.6h21.7v2.6
				c-2.3,0-4.1,0.4-5.3,1.2c-1.2,0.8-2,2-2.4,3.8c-0.4,1.7-0.6,4-0.6,6.8V82.3z M675.1,81.6h-21.5V79c2.4,0,4.3-0.2,5.5-0.7
				c1.2-0.5,2.1-1.5,2.5-3c0.4-1.5,0.6-3.7,0.6-6.6V29.5h4.5v39.1c0,2.9,0.2,5.1,0.6,6.6c0.4,1.5,1.3,2.5,2.5,3
				c1.2,0.5,3,0.8,5.2,0.8V81.6z"/>
			<path d="M752.3,82.6c-6.3,0-11.6-1.3-15.9-3.8c-4.3-2.6-7.5-6.1-9.7-10.6c-2.2-4.5-3.3-9.5-3.3-15.2c0-6.3,1.3-11.7,3.9-16.1
				c2.6-4.4,6.1-7.8,10.7-10.1c4.5-2.3,9.7-3.5,15.6-3.5c3.2,0,5.8,0.3,7.8,0.8c2,0.5,3.5,1,4.7,1.6c1.2,0.5,2.1,0.8,2.8,0.8
				s1.3-0.3,1.7-0.9c0.4-0.6,0.9-1.4,1.4-2.2h2.8v20h-3.1c-1-5.7-3-9.8-6.2-12.4c-3.2-2.6-7.1-3.8-11.8-3.8
				c-6.6,0-11.7,2.2-15.3,6.7c-3.6,4.5-5.4,10.6-5.4,18.4c0,5.8,0.9,10.6,2.8,14.2c1.9,3.7,4.5,6.4,7.8,8.1
				c3.3,1.7,7.1,2.6,11.4,2.6c4.2,0,7.9-0.7,11.1-2.2c3.2-1.5,6.1-3.6,8.6-6.2l2.2,1.8c-1.7,2.3-3.6,4.4-5.9,6.2
				c-2.3,1.8-5,3.3-8,4.3C759.9,82,756.3,82.6,752.3,82.6z M750.7,100.4c-1.7,0-3.2-0.3-4.3-1c-1.2-0.6-2.3-1.3-3.3-2.1l0.9-2
				c0.9,0.5,1.8,0.9,2.7,1.2c0.9,0.3,2,0.5,3.2,0.5c1.6,0,2.8-0.3,3.7-0.9c0.9-0.6,1.3-1.6,1.3-3c0-1-0.3-1.8-0.8-2.6
				c-0.6-0.7-1.6-1.1-3.1-1.1c-0.7,0-1.7,0.1-2.8,0.3l-1.3-1l1.9-7.5h2.7l-1.3,5.3c1-0.1,1.8-0.2,2.6-0.2c2.3,0,4.2,0.6,5.5,1.7
				c1.3,1.1,2,2.7,2,4.7c0,2.3-0.9,4.2-2.6,5.5C755.9,99.7,753.6,100.4,750.7,100.4z"/>
			<path d="M799.7,81.6h-19.3V79c1.7,0,3.1-0.3,4.1-0.8c1-0.5,2.1-1.6,3-3.2c1-1.6,2.2-4.1,3.7-7.4l19.5-43.8h3.8l21.8,47.4
				c1.3,2.9,2.6,4.9,3.9,6c1.3,1.2,3.1,1.7,5.6,1.7v2.6H821V79c0.9,0,1.9-0.1,2.8-0.2c1-0.1,1.8-0.4,2.5-0.9c0.7-0.5,1-1.2,1-2.2
				c0-0.6-0.1-1.4-0.3-2.2c-0.2-0.8-0.6-1.9-1.2-3.2l-4-8.7l-0.6-1.7l-10.5-25.3h-0.3l-10.8,25.3l-0.6,1.7l-4.5,10.1
				c-0.2,0.7-0.5,1.4-0.7,2.1c-0.2,0.7-0.3,1.4-0.3,2.2c0,1.2,0.5,2,1.5,2.4c1,0.4,2.5,0.6,4.7,0.6V81.6z M823.2,62.5h-25.5l1.4-3.5
				h22.8L823.2,62.5z"/>
			<path d="M895.3,81.6h-45.6V79c2.4,0,4.3-0.2,5.5-0.6c1.2-0.4,2-1.2,2.3-2.4c0.4-1.2,0.6-2.9,0.6-5.1V35.4c0-2.3-0.2-4-0.6-5.2
				c-0.4-1.2-1.1-2.1-2.3-2.5c-1.2-0.5-3-0.7-5.5-0.7v-2.6h25.8v2.6c-2.5,0-4.3,0.2-5.7,0.7c-1.3,0.5-2.2,1.4-2.7,2.6
				c-0.5,1.2-0.7,3-0.7,5.2v37.9c0,1.9,0.5,3.2,1.5,3.8c1,0.6,2.8,0.9,5.5,0.9h4.2c3.1,0,5.5-0.2,7.4-0.7c1.9-0.4,3.4-1.2,4.5-2.2
				c1.1-1,2.1-2.4,2.8-4.1c0.8-1.7,1.6-3.8,2.5-6.3h2.9L895.3,81.6z"/>
			<path d="M932.8,82h-3.7l-21-47.2c-0.9-2-1.7-3.5-2.6-4.7c-0.9-1.1-1.8-2-2.9-2.5c-1.1-0.5-2.5-0.8-4.1-0.8v-2.6H923v2.6
				c-0.8,0-1.7,0.1-2.7,0.2c-1,0.1-1.8,0.4-2.5,0.8c-0.7,0.4-1.1,1.2-1.1,2.3c0,1.2,0.5,2.9,1.6,5.3l11.1,25.9l3.6,9.2h0.5l3.2-8.7
				l11.6-27.7c0.3-0.6,0.6-1.3,0.7-2.1c0.2-0.7,0.3-1.5,0.3-2.2c0-1.2-0.5-1.9-1.5-2.4c-1-0.4-2.5-0.6-4.7-0.6v-2.6h19.3v2.6
				c-1.3,0-2.4,0.1-3.3,0.4c-0.9,0.3-1.7,0.8-2.4,1.6c-0.7,0.8-1.5,1.9-2.3,3.4c-0.8,1.5-1.7,3.5-2.8,5.9L932.8,82z"/>
			<path d="M1013.9,81.6h-49.1V79c2.5,0,4.4-0.2,5.7-0.5c1.3-0.3,2.1-1,2.6-2.1c0.5-1.1,0.7-2.8,0.7-5.1V34.9c0-2.2-0.2-3.9-0.7-5.1
				c-0.5-1.2-1.3-1.9-2.6-2.4c-1.3-0.4-3.1-0.6-5.7-0.6v-2.6h48.2l0.6,14.3h-2.9c-0.4-2.9-1.1-5.1-2-6.6c-0.9-1.5-2.3-2.5-4.3-3
				c-2-0.5-4.9-0.8-8.7-0.8h-13.5v22.2H993c2.8,0,5-0.2,6.4-0.7c1.5-0.5,2.5-1.3,3-2.6c0.6-1.3,0.8-3.1,0.8-5.4h2.9v20.2h-2.9
				c0-2.4-0.3-4.2-0.8-5.3c-0.6-1.2-1.6-1.9-3-2.3c-1.5-0.3-3.6-0.5-6.4-0.5h-10.8v24h11.9c3.6,0,6.4-0.2,8.6-0.5
				c2.2-0.3,3.9-0.9,5.1-1.8c1.3-0.9,2.3-2.1,3.1-3.8c0.8-1.6,1.7-3.8,2.6-6.4h2.9L1013.9,81.6z"/>
			<path d="M1025.7,82.9h-2.8l-0.8-18.8h2.8c1.1,4,2.4,7.1,3.9,9.2c1.5,2.1,3.3,3.6,5.5,4.4c2.2,0.8,4.8,1.2,7.9,1.2
				c2.3,0,4.3-0.3,6-0.9c1.7-0.6,2.9-1.6,3.9-3c0.9-1.4,1.4-3.2,1.4-5.4c0-2.6-0.8-4.7-2.3-6.4c-1.5-1.7-3.4-3.2-5.7-4.5
				c-2.3-1.3-4.7-2.6-7.3-4c-2.5-1.3-4.8-2.8-7.1-4.3c-2.3-1.5-4.1-3.3-5.6-5.4c-1.4-2.1-2.2-4.7-2.2-7.7c0-3.1,0.8-5.7,2.4-7.7
				c1.6-2.1,3.7-3.6,6.3-4.8c2.6-1.1,5.5-1.7,8.7-1.7c2.8,0,5,0.2,6.5,0.7c1.5,0.4,2.7,0.9,3.6,1.4c0.9,0.5,1.7,0.7,2.4,0.7
				c0.7,0,1.3-0.2,1.8-0.6c0.5-0.4,0.8-1,1.1-2h2.4l0.6,17.4h-2.8c-1.3-4.8-3-8.4-5.1-10.7c-2.1-2.3-5.5-3.5-10.2-3.4
				c-3.1,0-5.5,0.7-7.3,2.1c-1.7,1.4-2.6,3.4-2.6,6.2c0,2.2,0.6,4,1.9,5.5c1.3,1.5,3,2.9,5.1,4.1c2.1,1.2,4.3,2.5,6.5,3.8
				c2,1.1,4.1,2.2,6.1,3.3c2.1,1.1,3.9,2.4,5.6,3.8c1.7,1.4,3,3,4,4.9c1,1.9,1.5,4.1,1.5,6.7c0,3.4-0.8,6.2-2.4,8.5
				c-1.6,2.3-3.8,4.1-6.7,5.3c-2.8,1.2-6,1.8-9.6,1.8c-3.2,0-5.8-0.2-7.8-0.7c-2-0.4-3.6-0.9-4.7-1.3c-1.1-0.4-2.1-0.7-2.8-0.7
				c-0.6,0-1.2,0.3-1.7,0.8C1026,81.3,1025.7,82,1025.7,82.9z"/>
		</g>
	</g>
	<g>
		<g>
			<path class="st0" d="M276.3,124v1.2c-1.4,0-2.5,0.2-3.2,0.6c-0.7,0.4-1.2,0.9-1.5,1.7c-0.2,0.8-0.4,1.9-0.4,3.4v35.8
				c-0.2,0-0.5,0-0.7,0s-0.5,0-0.7,0l-26-38.9v31.7c0,1.4,0.1,2.6,0.4,3.4c0.3,0.8,0.8,1.4,1.6,1.7c0.8,0.3,2,0.6,3.6,0.6v1.2
				c-0.7-0.1-1.7-0.1-2.9-0.1c-1.2,0-2.3,0-3.4,0c-1,0-2.1,0-3.1,0c-1.1,0-1.9,0.1-2.6,0.1v-1.2c1.4-0.1,2.5-0.3,3.2-0.6
				c0.7-0.3,1.2-0.9,1.5-1.7c0.2-0.8,0.4-2,0.4-3.4v-29.2c0-1.5-0.1-2.6-0.4-3.3c-0.2-0.7-0.7-1.2-1.5-1.4c-0.7-0.3-1.8-0.4-3.2-0.4
				V124c0.7,0,1.6,0.1,2.6,0.1c1.1,0,2.1,0.1,3.1,0.1c0.9,0,1.8,0,2.6-0.1c0.8,0,1.6-0.1,2.2-0.1l21.8,32.6v-25.7
				c0-1.5-0.1-2.6-0.4-3.4c-0.3-0.8-0.8-1.4-1.6-1.7c-0.8-0.4-2-0.6-3.6-0.6V124c0.7,0,1.7,0.1,2.9,0.1c1.2,0,2.3,0.1,3.4,0.1
				c1.1,0,2.1,0,3.2-0.1C274.8,124,275.7,124,276.3,124z"/>
			<path class="st0" d="M302.4,123.7l15.1,37.7c0.6,1.5,1.3,2.5,2.1,3c0.8,0.5,1.5,0.8,2.2,0.8v1.2c-0.8-0.1-1.8-0.1-3-0.1
				c-1.2,0-2.4,0-3.6,0c-1.6,0-3.1,0-4.5,0c-1.4,0-2.5,0.1-3.4,0.1v-1.2c2.1-0.1,3.4-0.4,4-1c0.6-0.6,0.5-2-0.4-4l-11.5-29.8l1-0.8
				l-10.8,27.1c-0.7,1.6-1.1,3-1.2,4.1c-0.1,1.1,0,2,0.3,2.6c0.3,0.6,0.9,1.1,1.8,1.4c0.8,0.3,1.9,0.4,3.2,0.5v1.2
				c-1.2-0.1-2.4-0.1-3.6-0.1c-1.3,0-2.4,0-3.5,0c-1,0-1.9,0-2.6,0c-0.7,0-1.4,0.1-2,0.1v-1.2c0.8-0.2,1.7-0.7,2.5-1.4
				c0.9-0.7,1.6-2,2.3-3.8l14.5-36.4c0.2,0,0.3,0,0.5,0C302,123.7,302.2,123.7,302.4,123.7z M309.9,149.2v1.2h-18.4l0.6-1.2H309.9z"
				/>
			<path class="st0" d="M361.8,124c-0.2,1.5-0.3,3-0.3,4.4c-0.1,1.4-0.1,2.5-0.1,3.3c0,1,0,1.9,0.1,2.7c0,0.8,0.1,1.6,0.1,2.2h-1.4
				c-0.3-2.8-0.7-5-1.2-6.6c-0.5-1.6-1.4-2.8-2.6-3.5c-1.2-0.7-3.2-1.1-5.8-1.1h-3.3v34.1c0,1.6,0.2,2.8,0.5,3.6
				c0.3,0.8,0.9,1.3,1.8,1.6c0.9,0.3,2.2,0.5,4,0.5v1.2c-1.1-0.1-2.4-0.1-4.1-0.1c-1.6,0-3.3,0-5,0c-1.9,0-3.6,0-5.2,0
				c-1.6,0-2.9,0.1-3.9,0.1v-1.2c1.7-0.1,3.1-0.3,4-0.5c0.9-0.3,1.5-0.8,1.8-1.6c0.3-0.8,0.5-2,0.5-3.6v-34.1h-3.3
				c-2.6,0-4.5,0.4-5.7,1.1c-1.3,0.7-2.1,1.9-2.6,3.5c-0.5,1.6-0.9,3.8-1.2,6.6h-1.4c0.1-0.6,0.1-1.4,0.2-2.2c0-0.8,0-1.7,0-2.7
				c0-0.8,0-1.9-0.1-3.3c-0.1-1.4-0.2-2.9-0.3-4.4c1.7,0,3.6,0.1,5.7,0.1c2,0,4.1,0.1,6.2,0.1s3.9,0,5.6,0c1.7,0,3.6,0,5.6,0
				c2,0,4.1,0,6.2-0.1C358.2,124,360.1,124,361.8,124z"/>
			<path class="st0" d="M407.9,124v1.2c-1.4,0-2.5,0.2-3.2,0.6c-0.7,0.4-1.2,0.9-1.5,1.7c-0.2,0.8-0.4,1.9-0.4,3.4V149
				c0,2.8-0.2,5.2-0.6,7.3c-0.4,2.1-1,3.9-2,5.4c-1,1.7-2.5,3-4.5,4.1c-2,1-4.2,1.5-6.8,1.5c-2,0-3.9-0.2-5.7-0.7
				c-1.8-0.5-3.4-1.3-4.7-2.5c-1.2-1.1-2.1-2.3-2.8-3.5c-0.7-1.2-1.1-2.8-1.4-4.6c-0.2-1.8-0.4-4.1-0.4-6.8v-18.8
				c0-1.5-0.1-2.6-0.4-3.3c-0.2-0.7-0.7-1.2-1.5-1.4c-0.7-0.3-1.8-0.4-3.2-0.4V124c0.9,0,2,0.1,3.4,0.1c1.4,0,2.9,0.1,4.5,0.1
				c1.4,0,2.9,0,4.3-0.1c1.4,0,2.6-0.1,3.6-0.1v1.2c-1.4,0-2.5,0.2-3.2,0.4c-0.7,0.3-1.2,0.7-1.5,1.4c-0.2,0.7-0.4,1.8-0.4,3.3v19.9
				c0,2,0.1,4,0.3,5.8c0.2,1.8,0.6,3.4,1.3,4.8c0.6,1.4,1.6,2.5,2.9,3.2c1.3,0.8,3.1,1.2,5.3,1.2c3.1,0,5.6-0.7,7.3-2
				c1.7-1.3,2.9-3.2,3.6-5.5c0.7-2.4,1-5,1-8v-18.7c0-1.5-0.2-2.6-0.5-3.4c-0.4-0.8-0.9-1.4-1.8-1.7c-0.8-0.4-1.9-0.6-3.3-0.6V124
				c0.7,0,1.7,0.1,2.9,0.1c1.2,0,2.3,0.1,3.4,0.1c1.1,0,2.1,0,3.2-0.1C406.4,124,407.3,124,407.9,124z"/>
			<path class="st0" d="M416,124c0.9,0,2,0.1,3.4,0.1c1.4,0,2.8,0.1,4.1,0.1c1.9,0,3.8,0,5.6-0.1c1.8,0,3-0.1,3.8-0.1
				c3.3,0,6.1,0.5,8.3,1.4c2.2,0.9,3.9,2.2,4.9,3.8c1.1,1.6,1.6,3.4,1.6,5.3c0,1.2-0.2,2.5-0.7,3.8c-0.5,1.4-1.4,2.6-2.6,3.8
				c-1.2,1.2-2.9,2.2-5,3c-2.1,0.8-4.8,1.2-8,1.2h-5.9v-1.2h5.3c2.9,0,5.2-0.5,6.7-1.4s2.6-2.1,3.2-3.6s0.8-3.2,0.8-5
				c0-3.2-0.8-5.6-2.3-7.4c-1.5-1.7-4.2-2.6-7.9-2.6c-1.9,0-3.1,0.3-3.7,1c-0.6,0.7-0.9,2.1-0.9,4.1v29.8c0,1.4,0.1,2.5,0.4,3.2
				c0.2,0.7,0.7,1.2,1.5,1.4c0.7,0.2,1.8,0.4,3.2,0.5v1.2c-0.9-0.1-2.1-0.1-3.6-0.1c-1.4,0-2.9,0-4.3,0c-1.6,0-3.1,0-4.5,0
				c-1.4,0-2.5,0.1-3.4,0.1v-1.2c1.4-0.1,2.5-0.2,3.2-0.5c0.7-0.2,1.2-0.7,1.5-1.4c0.2-0.7,0.4-1.8,0.4-3.2v-29.8
				c0-1.5-0.1-2.6-0.4-3.3c-0.2-0.7-0.7-1.2-1.5-1.4c-0.7-0.3-1.8-0.4-3.2-0.4V124z M425.9,145.3c2.2,0.1,4,0.2,5.3,0.3
				c1.3,0.1,2.3,0.2,3.1,0.3c0.8,0.1,1.6,0.2,2.3,0.3c2.8,0.4,4.8,1.3,6,2.4c1.2,1.2,2.1,3,2.7,5.5l1.5,6.1c0.4,1.8,0.8,3,1.3,3.8
				c0.4,0.8,1.1,1.2,2,1.1c0.7,0,1.3-0.3,1.8-0.7c0.5-0.4,1-0.9,1.5-1.6l0.9,0.7c-0.9,1.2-1.8,2.2-2.7,2.9c-0.9,0.7-2.2,1-3.9,1
				c-1.5,0-2.9-0.4-4-1.3s-2-2.6-2.6-5.2l-1.4-6c-0.4-1.7-0.8-3.2-1.3-4.5c-0.5-1.3-1.1-2.2-2-3c-0.8-0.7-2.1-1.1-3.7-1.1H426
				L425.9,145.3z"/>
			<path class="st0" d="M480.3,123.1c3.9,0,7.3,0.9,10.3,2.6c2.9,1.7,5.2,4.2,6.9,7.4c1.6,3.2,2.4,7.1,2.4,11.7
				c0,4.5-0.8,8.4-2.5,11.8c-1.7,3.4-4,6-7,7.9c-3,1.9-6.4,2.8-10.2,2.8c-3.9,0-7.3-0.9-10.3-2.6c-2.9-1.7-5.2-4.2-6.9-7.4
				c-1.6-3.2-2.4-7.1-2.4-11.7c0-4.5,0.8-8.4,2.5-11.8c1.7-3.4,4-6,7-7.9C473.1,124.1,476.4,123.1,480.3,123.1z M480,124.2
				c-2.7,0-5,0.9-7,2.7c-2,1.8-3.5,4.3-4.6,7.4c-1.1,3.2-1.6,6.8-1.6,11c0,4.2,0.6,7.9,1.8,11.1c1.2,3.1,2.9,5.6,4.9,7.3
				c2.1,1.7,4.4,2.5,6.9,2.5c2.7,0,5-0.9,7-2.7c2-1.8,3.5-4.3,4.6-7.5c1.1-3.2,1.6-6.8,1.6-10.9c0-4.3-0.6-8-1.8-11.1
				s-2.9-5.5-4.9-7.2C484.9,125,482.6,124.2,480,124.2z"/>
			<path class="st0" d="M509.6,124c0.9,0,2,0.1,3.4,0.1c1.4,0,2.8,0.1,4.1,0.1c1.9,0,3.8,0,5.6-0.1c1.8,0,3-0.1,3.8-0.1
				c5,0,8.7,1.1,11.2,3.3c2.5,2.2,3.7,5,3.7,8.5c0,1.4-0.2,3-0.7,4.5c-0.5,1.6-1.4,3-2.6,4.4c-1.2,1.3-2.9,2.4-5,3.3s-4.8,1.3-8,1.3
				h-5.9v-1.2h5.3c2.9,0,5.2-0.5,6.7-1.6s2.6-2.5,3.2-4.3c0.6-1.8,0.8-3.7,0.8-5.7c0-3.8-0.8-6.6-2.3-8.5c-1.5-1.9-4.2-2.8-7.9-2.8
				c-1.9,0-3.1,0.3-3.7,1c-0.6,0.7-0.9,2.1-0.9,4.1v29.8c0,1.4,0.2,2.5,0.5,3.2c0.3,0.7,0.9,1.2,1.8,1.4c0.9,0.2,2.2,0.4,4,0.5v1.2
				c-1.1-0.1-2.4-0.1-4.1-0.1c-1.6,0-3.3,0-5,0c-1.6,0-3.1,0-4.5,0c-1.4,0-2.5,0.1-3.4,0.1v-1.2c1.4-0.1,2.5-0.2,3.2-0.5
				c0.7-0.2,1.2-0.7,1.5-1.4c0.2-0.7,0.4-1.8,0.4-3.2v-29.8c0-1.5-0.1-2.6-0.4-3.3c-0.2-0.7-0.7-1.2-1.5-1.4
				c-0.7-0.3-1.8-0.4-3.2-0.4V124z"/>
			<path class="st0" d="M567,123.7l15.1,37.7c0.6,1.5,1.3,2.5,2.1,3c0.8,0.5,1.5,0.8,2.2,0.8v1.2c-0.8-0.1-1.8-0.1-3-0.1
				c-1.2,0-2.4,0-3.6,0c-1.6,0-3.1,0-4.5,0c-1.4,0-2.5,0.1-3.4,0.1v-1.2c2.1-0.1,3.4-0.4,4-1c0.6-0.6,0.5-2-0.4-4l-11.5-29.8l1-0.8
				l-10.8,27.1c-0.7,1.6-1.1,3-1.2,4.1c-0.1,1.1,0,2,0.3,2.6c0.3,0.6,0.9,1.1,1.8,1.4c0.8,0.3,1.9,0.4,3.2,0.5v1.2
				c-1.2-0.1-2.4-0.1-3.6-0.1c-1.3,0-2.4,0-3.5,0c-1,0-1.9,0-2.6,0c-0.7,0-1.4,0.1-2,0.1v-1.2c0.8-0.2,1.7-0.7,2.5-1.4
				c0.9-0.7,1.6-2,2.3-3.8l14.5-36.4c0.2,0,0.3,0,0.5,0C566.6,123.7,566.8,123.7,567,123.7z M574.5,149.2v1.2h-18.4l0.6-1.2H574.5z"
				/>
			<path class="st0" d="M626.4,124c-0.2,1.5-0.3,3-0.3,4.4c-0.1,1.4-0.1,2.5-0.1,3.3c0,1,0,1.9,0.1,2.7c0,0.8,0.1,1.6,0.1,2.2h-1.4
				c-0.3-2.8-0.7-5-1.2-6.6c-0.5-1.6-1.4-2.8-2.6-3.5c-1.2-0.7-3.2-1.1-5.8-1.1h-3.3v34.1c0,1.6,0.2,2.8,0.5,3.6
				c0.3,0.8,0.9,1.3,1.8,1.6c0.9,0.3,2.2,0.5,4,0.5v1.2c-1.1-0.1-2.4-0.1-4.1-0.1c-1.6,0-3.3,0-5,0c-1.9,0-3.6,0-5.2,0
				c-1.6,0-2.9,0.1-3.9,0.1v-1.2c1.7-0.1,3.1-0.3,4-0.5c0.9-0.3,1.5-0.8,1.8-1.6c0.3-0.8,0.5-2,0.5-3.6v-34.1h-3.3
				c-2.6,0-4.5,0.4-5.7,1.1c-1.3,0.7-2.1,1.9-2.6,3.5c-0.5,1.6-0.9,3.8-1.2,6.6h-1.4c0.1-0.6,0.1-1.4,0.2-2.2c0-0.8,0-1.7,0-2.7
				c0-0.8,0-1.9-0.1-3.3c-0.1-1.4-0.2-2.9-0.3-4.4c1.7,0,3.6,0.1,5.7,0.1c2,0,4.1,0.1,6.2,0.1s3.9,0,5.6,0c1.7,0,3.6,0,5.6,0
				c2,0,4.1,0,6.2-0.1C622.8,124,624.7,124,626.4,124z"/>
			<path class="st0" d="M652,123.7l15.1,37.7c0.6,1.5,1.3,2.5,2.1,3c0.8,0.5,1.5,0.8,2.2,0.8v1.2c-0.8-0.1-1.8-0.1-3-0.1
				c-1.2,0-2.4,0-3.6,0c-1.6,0-3.1,0-4.5,0c-1.4,0-2.5,0.1-3.4,0.1v-1.2c2.1-0.1,3.4-0.4,4-1c0.6-0.6,0.5-2-0.4-4L649,130.4l1-0.8
				l-10.8,27.1c-0.7,1.6-1.1,3-1.2,4.1c-0.1,1.1,0,2,0.3,2.6c0.3,0.6,0.9,1.1,1.8,1.4c0.8,0.3,1.9,0.4,3.2,0.5v1.2
				c-1.2-0.1-2.4-0.1-3.6-0.1c-1.3,0-2.4,0-3.5,0c-1,0-1.9,0-2.6,0c-0.7,0-1.4,0.1-2,0.1v-1.2c0.8-0.2,1.7-0.7,2.5-1.4
				c0.9-0.7,1.6-2,2.3-3.8l14.5-36.4c0.2,0,0.3,0,0.5,0C651.7,123.7,651.8,123.7,652,123.7z M659.5,149.2v1.2h-18.4l0.6-1.2H659.5z"
				/>
		</g>
	</g>
</g>
</svg>
